<svg id="Layer_1" data-name="Layer 1" xmlns="http://www.w3.org/2000/svg" viewBox="0 0 1500 500"><defs><style>.cls-1{fill:#f6cac9;}.cls-1,.cls-5{stroke:#dcb5b3;}.cls-1,.cls-11,.cls-13,.cls-34,.cls-39,.cls-5{stroke-miterlimit:10;}.cls-2{fill:#404041;}.cls-3,.cls-39{fill:#fff;}.cls-4{fill:#74acb8;}.cls-11,.cls-13,.cls-34,.cls-5{fill:none;}.cls-6{fill:#b18e6a;}.cls-7{fill:#f16522;}.cls-8{fill:#a56f29;}.cls-9{fill:#2b388f;}.cls-10{fill:#1b75bb;}.cls-11{stroke:#2b388f;}.cls-12{fill:#8a5d3b;}.cls-13{stroke:#ee4036;}.cls-14{fill:#481c11;opacity:0.05;isolation:isolate;}.cls-15{fill:#4962a2;}.cls-16{fill:#6b6265;}.cls-17{fill:#756856;}.cls-18{fill:#af3a60;}.cls-19{fill:#48497f;}.cls-20{fill:#b64d52;}.cls-21{fill:#e5d9b9;}.cls-22{fill:#5877b0;}.cls-23{fill:#c82027;}.cls-24{fill:#5083a2;}.cls-25{fill:#774c43;}.cls-26{fill:#84959b;}.cls-27{fill:#2e5d8e;}.cls-28{fill:#f1f9fd;}.cls-29{fill:#95afd0;}.cls-30{fill:#b2a9a9;}.cls-31{fill:#ed6da8;}.cls-32{fill:#791121;}.cls-33{fill:#e9e971;}.cls-34{stroke:#e9e971;stroke-width:3px;}.cls-35{fill:#37b34a;}.cls-36{fill:#ec1c24;}.cls-37{fill:#ffdd15;}.cls-38{fill:#be1e2d;}.cls-39{stroke:#dddddc;}.cls-40{fill:#6d74b6;}</style></defs><title>Artboard 1</title><path class="cls-1" d="M81.32,125.76c2.23,6.27,6.84,20.4,6.58,28-1,3.67-7,7.69-11.12,14.8-.86,1.51-2.23,2.68-3.19,4.16-3.45,4.07-8.45,7.32-11.27,11.78-3.2,5.07-3.58,12.19-4.58,17.86a479.86,479.86,0,0,0-7.45,81.49c0,7.87.73,26.95,11.05,27.69,7.83.55,3.58-4.37,1.85-8-2-4.15-2.21-8.89-1.94-14.15a8.35,8.35,0,0,1,3.85,0c1.38,4.7,6.09,7.85,7.06,1.39.64-4.23-3.36-5.59-4.9-9.66-1.71-4.51-1.54-11-2.72-16.27-1.34-6,2.66-12.19,2.72-18.66.11-11.27-2.73-18.5-.64-28.85,1.36-6.75.48-18.41,4.41-24v.59c-2.83,10.9.15,28.72.15,39.53,0,10.56-.44,21.28.1,31.8,1.23.11,2.43.24,3.61.38L77,406.92v1.62a8.6,8.6,0,0,0-.23,1.33c-.28,4.84-3,6-6.59,8.13a34.56,34.56,0,0,1-10.5,4.6c-3.15.65-8.58-.2-9.39,3.57-1.12,5.2,4,4.29,7.36,4.8,1.89.29,3.32,1,5.31,1.08a38,38,0,0,0,6.73-.45c4.46-.64,9-.67,13.64-1.14,4-.4,10.45,1,11.31-3.6,1-5.44-2.15-10.49-1.58-15.63v-2.85h0v-1.25h0L91,268.13c2.06.25,4.18.45,6.4.54v.07h3v-.07c2.22-.09,4.34-.29,6.4-.54l-2.09,139h0v1.25h0v2.85c.56,5.14-2.6,10.19-1.59,15.63.87,4.64,7.28,3.2,11.31,3.6,4.63.47,9.18.5,13.65,1.14a38,38,0,0,0,6.73.45c2-.08,3.42-.79,5.3-1.08,3.35-.51,8.49.4,7.37-4.8-.81-3.77-6.24-2.92-9.39-3.57a34.56,34.56,0,0,1-10.5-4.6c-3.56-2.16-6.32-3.29-6.59-8.13a7.58,7.58,0,0,0-.24-1.33v-1.62L123,265.63c1.18-.14,2.38-.27,3.61-.38.53-10.52.1-21.24.1-31.8,0-10.81,3-28.63.15-39.53v-.59c3.93,5.58,3,17.24,4.41,24,2.09,10.35-.75,17.58-.64,28.85.06,6.47,4.06,12.68,2.72,18.66-1.19,5.28-1,11.76-2.72,16.27-1.54,4.07-5.54,5.43-4.9,9.66,1,6.46,5.68,3.31,7-1.39a8.67,8.67,0,0,1,3.86,0c.27,5.26,0,10-1.94,14.15-1.73,3.63-6,8.55,1.85,8,10.32-.74,11.06-19.82,11.05-27.69a480.89,480.89,0,0,0-7.45-81.49c-1-5.67-1.38-12.79-4.58-17.86-2.82-4.46-7.83-7.71-11.27-11.78-1-1.48-3.69-2.65-4.55-4.16a59.46,59.46,0,0,1-8-27.28c.34-5.94,2.41-12,3.67-15.49"/><path class="cls-2" d="M95.19,418.83c-.55-3.72-1.42-7.13-1.44-9.64-3.93-.18-11.66-2.25-15.22-.72-1.75.74-7.09,5.07-9,6.33-2.1,1.36-3.59,2.74-6,3.54-.54.18-1.14.34-1.79.49h-8.3c-5,0-9,5.68-9,12.69h0c-.13,2,5.43,2,10.38,2h39l1.32-2h0V418.83Z"/><path class="cls-2" d="M102.71,418.83c.55-3.72,1.42-7.13,1.44-9.64,3.93-.18,11.65-2.25,15.22-.72,1.75.74,7.09,5.07,9,6.33,2.09,1.36,3.59,2.74,6,3.54.54.18,1.14.34,1.79.49h8.25c5,0,9,5.68,9,12.69h0c.13,2-5.43,2-10.38,2H104l-1.32-2h-.05V418.83Z"/><path class="cls-1" d="M120.7,105.8c-.55-4-2.34-7.84-3-11.86s-.26-8.13-1.87-11.86c-3.41-7.92-10.5-10.84-17.83-10.49-7.32-.35-14.41,2.57-17.82,10.49C78.58,85.81,79,90,78.32,93.94s-2.44,7.81-3,11.86c-1,7,3.89,17.68,7.62,23.11,3.56,5.18,7.81,11.42,14.15,11.49h1.83c6.34-.07,10.59-6.31,14.15-11.49C116.81,123.48,121.64,112.76,120.7,105.8Z"/><path class="cls-1" d="M119.45,105.52c.25-2,3.3-5.17,4.65-1.42,1.09,3.06-2.32,5.85-1.46,8.88a5.61,5.61,0,0,1-1.56,1.35,6.76,6.76,0,0,1-.7-2.6"/><path class="cls-3" d="M102.14,102.31c6-4.81,7.63-2.09,12.08,1-3.07.78-8.17,2.28-12.08-1"/><path class="cls-4" d="M111.14,102a3.11,3.11,0,0,0-.19-1c-1.58-1.06-3-1.61-4.94-1a2.93,2.93,0,0,0,.13,4.13l.06.05a12.78,12.78,0,0,0,4,0A3,3,0,0,0,111.14,102Z"/><path class="cls-2" d="M109.2,102.1a1,1,0,1,1-1-1A1,1,0,0,1,109.2,102.1Z"/><path class="cls-5" d="M102.89,104.74c1.93,1.45,4.19,1.8,6.43,2.28"/><path class="cls-5" d="M99.53,97c2.14-.36,4.47-2.17,6.57-2.22,2.76-.07,4.1,1.56,6.58,2.22"/><path class="cls-3" d="M92.53,102.48c-6-4.82-7.63-2.1-12.08,1,3.07.79,8.17,2.28,12.08-1"/><path class="cls-4" d="M83.53,102.14a3.11,3.11,0,0,1,.19-1c1.58-1.06,3-1.62,4.94-1a2.92,2.92,0,0,1,.79,2,3,3,0,0,1-1,2.19,12.78,12.78,0,0,1-4,0A3,3,0,0,1,83.53,102.14Z"/><path class="cls-2" d="M85.47,102.27a1,1,0,1,0,1-1A1,1,0,0,0,85.47,102.27Z"/><path class="cls-5" d="M91.79,104.9c-1.94,1.46-4.2,1.8-6.44,2.29"/><path class="cls-5" d="M95.14,97.2C93,96.85,90.67,95,88.57,95c-2.76-.07-4.1,1.57-6.57,2.22"/><path class="cls-6" d="M96.72,115.35a1,1,0,1,1-1-1A1,1,0,0,1,96.72,115.35Z"/><path class="cls-6" d="M101,115.35a1,1,0,1,1-1-1A1,1,0,0,1,101,115.35Z"/><path class="cls-7" d="M103.9,124.58l-.69-.2-.7-.16-.7-.15-.68-.16a4.84,4.84,0,0,1-.65-.19,6.44,6.44,0,0,1-.61-.24,3,3,0,0,1-.54-.33,1,1,0,0,1-.18.17l-.21.15-.24.14-.25.14-.24.16-.23.17-.13.13-.14-.13-.23-.17-.24-.16-.25-.14-.23-.14-.22-.15a1,1,0,0,1-.18-.17,3,3,0,0,1-.54.33,6.44,6.44,0,0,1-.61.24,4.84,4.84,0,0,1-.65.19l-.68.16-.7.15-.7.16-.69.2c-.22.08-.44.17-.65.27l1.46.53,1.76.62c.62.21,1.27.42,1.93.6.38.11.76.2,1.15.29v.18l.42-.09a3.15,3.15,0,0,1,.42.09v-.18c.39-.09.77-.18,1.15-.29.66-.18,1.31-.39,1.93-.6l1.76-.62,1.46-.53Z"/><path class="cls-1" d="M76.24,105.52c-.25-2-3.3-5.17-4.65-1.42-1.09,3.06,2.32,5.85,1.46,8.88a5.61,5.61,0,0,0,1.56,1.35,6.76,6.76,0,0,0,.7-2.6"/><path class="cls-8" d="M92,79.17a2.3,2.3,0,0,0,1.64,1.54,4.3,4.3,0,0,0,2-.34A12.06,12.06,0,0,1,98,79.68a3,3,0,0,1,2.33.5,4,4,0,0,1,.81-.61c.29-.17.59-.32.89-.46a7.25,7.25,0,0,0,.86-.48,3.74,3.74,0,0,0,.78-.65,14.82,14.82,0,0,0,1.6.5c.54.15,1.08.26,1.64.36s1.11.17,1.69.22,1.17.1,1.77.13A49.69,49.69,0,0,1,113,85c.74,1.93,1.38,3.88,2,5.84s1.25,3.91,2,5.88,2.16,3.93,3.11,5.89a83.46,83.46,0,0,0-1-12.33,32.8,32.8,0,0,0-2.84-10.73,16.63,16.63,0,0,0-6.87-7.45c-3.12-1.76-7.17-2.69-12.4-2.51a28,28,0,0,0-5.9.75,18.18,18.18,0,0,0-4.82,1.89,15.7,15.7,0,0,0-3.86,3.12,20.27,20.27,0,0,0-3,4.44c-.46.87-1,1.77-1.46,2.7s-1,1.88-1.51,2.85-.26,2-.66,3-.05,2-.29,3A18,18,0,0,0,75.21,95c0,1-.31,6.81,0,8a37.22,37.22,0,0,0,2.38-5.73c.6-2.29.31-4.18.93-6.87s1.2-5.3,1.6-7.25A8.38,8.38,0,0,1,82,79.75"/><polygon class="cls-9" points="95.19 413.03 89.59 413.03 83.99 413.03 78.39 413.03 72.79 413.03 70.41 389.81 70.15 343.65 70.15 311.74 72.79 256.2 78.39 256.2 83.99 256.2 89.59 256.2 95.19 256.2 102.92 255.63 95.32 326.13 95.15 395.93 95.19 413.03"/><polygon class="cls-9" points="103.54 413.03 109.14 413.03 114.74 413.03 120.34 413.03 125.94 413.03 128.32 389.81 128.58 343.65 128.58 311.74 125.94 256.2 120.34 256.2 114.74 256.2 109.14 256.2 103.54 256.2 95.81 255.63 103.41 326.13 103.58 395.93 103.54 413.03"/><path class="cls-10" d="M153.64,243.23c-.61-12.28-2.33-24.34-6.06-34.65-1.55-4.27-3-8.85-4.93-13.22a40.2,40.2,0,0,0-7.47-11.92c-1.79-1.87-18.5-22.3-17.49-23.17s.78-1.67,1.93-2.4a62.18,62.18,0,0,0,0-8.19A19.51,19.51,0,0,0,117.7,142l-8.15.67-8.14.66a21.12,21.12,0,0,0-2.25,6,21.12,21.12,0,0,0-2.25-6l-8.14-.66L80.62,142a19.66,19.66,0,0,0-1.94,7.67,62.17,62.17,0,0,0,0,8.19c1.15.73.91,1.52,1.93,2.4s-15.7,21.3-17.49,23.17a40,40,0,0,0-7.48,11.92c-1.9,4.37-3.37,9-4.92,13.22-3.72,10.32-5.44,22.43-6,34.66a316.2,316.2,0,0,0,.63,35.9,30.18,30.18,0,0,0,.75,5c.37,1.55.85,3.08,1.44,4.9,2.28-1.67,7.37-1.16,12.13-.9s9.19.28,10.14-2.35c.33-.92-.44-3-1.33-5.11a32.24,32.24,0,0,1-2.08-5.55,37,37,0,0,1-.12-6.66c.11-2.25.27-4.5.16-6.69-.42-8.12,2.35-14,2.34-22.15S66,221,68.43,213.41a24.73,24.73,0,0,0,.38,8.36c.51,2.78,1.23,5.52,1.62,8.08a72.05,72.05,0,0,1,.71,9.85v10.12c0,5.38-.45,12.17-.4,18.86s.6,13.3,2.56,18.3c4.41-.19,8.4.76,12.4,1.7s8,1.86,12.48,1.63a12,12,0,0,0,1-.89c.32.31.65.61,1,.89,4.47.23,8.48-.7,12.48-1.63s8-1.89,12.41-1.7c2-5,2.51-11.6,2.56-18.3s-.39-13.48-.41-18.86c0-3.34-.07-6.75,0-10.12a73.67,73.67,0,0,1,.7-9.85c.39-2.56,1.11-5.3,1.63-8.08a24.72,24.72,0,0,0,.38-8.36c2.48,7.63-.3,18-.31,26.21s2.75,14,2.34,22.15c-.11,2.19,0,4.44.16,6.69a37,37,0,0,1-.12,6.66,32.24,32.24,0,0,1-2.08,5.55c-.9,2.13-1.66,4.19-1.33,5.11.95,2.63,5.38,2.61,10.14,2.35s9.85-.77,12.13.9c.58-1.82,1.07-3.35,1.44-4.9a29,29,0,0,0,.74-5A311.62,311.62,0,0,0,153.64,243.23Z"/><line class="cls-11" x1="99.37" y1="162.13" x2="99.37" y2="277.36"/><path class="cls-1" d="M298.79,125.76c2.23,6.27,6.84,20.4,6.58,28-1,3.67-7,7.69-11.12,14.8-.86,1.51-2.23,2.68-3.19,4.16-3.45,4.07-8.45,7.32-11.27,11.78-3.2,5.07-3.58,12.19-4.58,17.86a478.85,478.85,0,0,0-7.45,81.49c0,7.87.73,26.95,11.05,27.69,7.83.55,3.58-4.37,1.85-8-2-4.15-2.21-8.89-1.94-14.15a8.35,8.35,0,0,1,3.85,0c1.38,4.7,6.09,7.85,7.06,1.39.64-4.23-3.36-5.59-4.9-9.66-1.71-4.51-1.54-11-2.72-16.27-1.34-6,2.66-12.19,2.72-18.66.11-11.27-2.73-18.5-.64-28.85,1.36-6.75.48-18.41,4.41-24v.59c-2.83,10.9.14,28.72.14,39.53,0,10.56-.43,21.28.11,31.8,1.23.11,2.43.24,3.61.38l2.12,141.29v1.62a10,10,0,0,0-.24,1.33c-.27,4.84-3,6-6.58,8.13a34.56,34.56,0,0,1-10.5,4.6c-3.15.65-8.58-.2-9.39,3.57-1.12,5.2,4,4.29,7.36,4.8,1.89.29,3.32,1,5.31,1.08a38,38,0,0,0,6.73-.45c4.46-.64,9-.67,13.64-1.14,4-.4,10.45,1,11.31-3.6,1-5.44-2.15-10.49-1.58-15.63v-2.85h0v-1.25h0l-2.08-139c2.05.25,4.18.45,6.4.54v.07h3.06v-.07c2.22-.09,4.34-.29,6.4-.54l-2.09,139h0v1.25h0v2.85c.56,5.14-2.6,10.19-1.59,15.63.87,4.64,7.28,3.2,11.31,3.6,4.63.47,9.18.5,13.65,1.14a38,38,0,0,0,6.73.45c2-.08,3.41-.79,5.3-1.08,3.35-.51,8.49.4,7.37-4.8-.81-3.77-6.24-2.92-9.39-3.57a34.56,34.56,0,0,1-10.5-4.6c-3.56-2.16-6.32-3.29-6.59-8.13a7.58,7.58,0,0,0-.24-1.33v-1.62l2.11-141.29c1.19-.14,2.39-.27,3.62-.38.53-10.52.1-21.24.1-31.8,0-10.81,3-28.63.15-39.53v-.59c3.93,5.58,3.05,17.24,4.41,24,2.09,10.35-.75,17.58-.64,28.85.06,6.47,4.06,12.68,2.72,18.66-1.19,5.28-1,11.76-2.72,16.27-1.54,4.07-5.54,5.43-4.9,9.66,1,6.46,5.67,3.31,7.05-1.39a8.67,8.67,0,0,1,3.86,0c.26,5.26,0,10-1.94,14.15-1.73,3.63-6,8.55,1.85,8,10.32-.74,11.06-19.82,11.05-27.69a480.89,480.89,0,0,0-7.45-81.49c-1-5.67-1.38-12.79-4.58-17.86-2.82-4.46-7.83-7.71-11.27-11.78-1-1.48-3.69-2.65-4.55-4.16a59.46,59.46,0,0,1-8-27.28c.34-5.94,2.41-12,3.67-15.49"/><polygon class="cls-2" points="321.01 413.03 326.61 413.03 332.21 413.03 337.81 413.03 343.41 413.03 345.79 389.81 346.05 343.65 346.05 311.74 343.41 256.2 337.81 256.2 332.21 256.2 326.61 256.2 321.01 256.2 313.28 255.63 320.88 326.13 321.05 395.93 321.01 413.03"/><path class="cls-2" d="M312.66,418.83c-.55-3.72-1.42-7.13-1.44-9.64-3.93-.18-11.66-2.25-15.22-.72-1.75.74-7.09,5.07-9,6.33-2.1,1.36-3.59,2.74-6,3.54-.54.18-1.14.34-1.79.49H271c-5,0-9,5.68-9,12.69h0c-.13,2,5.43,2,10.38,2h39l1.32-2h0V418.83Z"/><path class="cls-2" d="M320.18,418.83c.55-3.72,1.42-7.13,1.44-9.64,3.93-.18,11.65-2.25,15.22-.72,1.75.74,7.09,5.07,9,6.33,2.09,1.36,3.59,2.74,6,3.54.54.18,1.14.34,1.79.49h8.25c5,0,9,5.68,9,12.69h0c.13,2-5.44,2-10.38,2h-39l-1.32-2h0Z"/><path class="cls-1" d="M338.17,105.8c-.55-4-2.34-7.84-3-11.86s-.26-8.13-1.87-11.86c-3.42-7.92-10.51-10.84-17.83-10.49-7.32-.35-14.41,2.57-17.82,10.49-1.61,3.73-1.24,7.94-1.87,11.86s-2.45,7.81-3,11.86c-.95,7,3.89,17.68,7.62,23.11,3.56,5.18,7.81,11.42,14.15,11.49h1.83c6.34-.07,10.59-6.31,14.15-11.49C334.28,123.48,339.11,112.76,338.17,105.8Z"/><path class="cls-1" d="M336.92,105.52c.25-2,3.3-5.17,4.64-1.42,1.1,3.06-2.31,5.85-1.46,8.88a5.57,5.57,0,0,1-1.55,1.35,6.76,6.76,0,0,1-.7-2.6"/><path class="cls-3" d="M319.61,102.31c6-4.81,7.63-2.09,12.08,1-3.07.78-8.17,2.28-12.08-1"/><path class="cls-4" d="M328.61,102a3.11,3.11,0,0,0-.19-1c-1.58-1.06-3-1.61-4.94-1a2.93,2.93,0,0,0,.13,4.13l.06.05a12.78,12.78,0,0,0,4,0A3,3,0,0,0,328.61,102Z"/><path class="cls-2" d="M326.67,102.1a1,1,0,1,1-1-1A1,1,0,0,1,326.67,102.1Z"/><path class="cls-5" d="M320.35,104.74c1.94,1.45,4.2,1.8,6.44,2.28"/><path class="cls-5" d="M317,97c2.14-.36,4.47-2.17,6.57-2.22,2.76-.07,4.1,1.56,6.57,2.22"/><path class="cls-3" d="M310,102.48c-6-4.82-7.63-2.1-12.08,1,3.07.79,8.17,2.28,12.08-1"/><path class="cls-4" d="M301,102.14a3.11,3.11,0,0,1,.19-1c1.58-1.06,3-1.62,4.94-1a2.92,2.92,0,0,1,.79,2,3,3,0,0,1-1,2.19,12.78,12.78,0,0,1-4,0A3,3,0,0,1,301,102.14Z"/><path class="cls-2" d="M302.94,102.27a1,1,0,1,0,1-1A1,1,0,0,0,302.94,102.27Z"/><path class="cls-5" d="M309.26,104.9c-1.94,1.46-4.2,1.8-6.44,2.29"/><path class="cls-5" d="M312.61,97.2c-2.14-.35-4.47-2.2-6.61-2.2-2.76-.07-4.1,1.57-6.57,2.22"/><path class="cls-6" d="M314.19,115.35a1,1,0,1,1-1-1A1,1,0,0,1,314.19,115.35Z"/><path class="cls-6" d="M318.47,115.35a1,1,0,1,1-1-1A1,1,0,0,1,318.47,115.35Z"/><path class="cls-7" d="M321.37,124.58l-.69-.2-.7-.16-.7-.15-.68-.16a4.84,4.84,0,0,1-.65-.19,6.44,6.44,0,0,1-.61-.24,3,3,0,0,1-.54-.33,1,1,0,0,1-.18.17l-.22.15-.23.14-.25.14-.24.16-.23.17-.14.13a.8.8,0,0,0-.13-.13l-.23-.17-.24-.16-.25-.14-.23-.14-.22-.15a1,1,0,0,1-.18-.17,3,3,0,0,1-.54.33,6.44,6.44,0,0,1-.61.24,4.84,4.84,0,0,1-.65.19l-.68.16-.7.15-.7.16-.69.2c-.22.08-.44.17-.65.27l1.46.53,1.76.62c.62.21,1.27.42,1.93.6.38.11.76.2,1.15.29v.18l.42-.09.43.09v-.18c.39-.09.77-.18,1.15-.29.66-.18,1.31-.39,1.93-.6l1.76-.62,1.46-.53Z"/><path class="cls-1" d="M293.71,105.52c-.25-2-3.3-5.17-4.65-1.42-1.09,3.06,2.32,5.85,1.46,8.88a5.61,5.61,0,0,0,1.56,1.35,6.76,6.76,0,0,0,.7-2.6"/><path class="cls-12" d="M309.51,79.17a2.3,2.3,0,0,0,1.64,1.54,4.25,4.25,0,0,0,2.05-.34,11.23,11.23,0,0,1,2.27-.69,3,3,0,0,1,2.33.5,4,4,0,0,1,.81-.61c.29-.17.59-.32.88-.46a7.37,7.37,0,0,0,.87-.48,3.74,3.74,0,0,0,.78-.65,14.82,14.82,0,0,0,1.6.5c.54.15,1.08.26,1.64.36s1.11.17,1.69.22,1.17.1,1.77.13A49.44,49.44,0,0,1,330.43,85c.74,1.93,1.38,3.88,2,5.84s1.25,3.91,1.95,5.88,2.16,3.93,3.11,5.89a83.46,83.46,0,0,0-1-12.33,32.8,32.8,0,0,0-2.84-10.73,16.63,16.63,0,0,0-6.87-7.45c-3.12-1.76-7.17-2.69-12.4-2.51a28,28,0,0,0-5.9.75,18.18,18.18,0,0,0-4.82,1.89,15.94,15.94,0,0,0-3.87,3.12,20.51,20.51,0,0,0-3,4.44c-.46.87-1,1.77-1.46,2.7s-1,1.88-1.51,2.85-.26,2-.66,3-.05,2-.29,3a18.56,18.56,0,0,0-.15,3.65c0,1-.31,6.81,0,8A37.44,37.44,0,0,0,295,97.2c.6-2.29.31-4.18.93-6.87s1.2-5.3,1.6-7.25a8.3,8.3,0,0,1,1.88-3.33"/><polygon class="cls-2" points="312.66 413.03 307.06 413.03 301.46 413.03 295.86 413.03 290.26 413.03 287.88 389.81 287.62 343.65 287.62 311.74 290.26 256.2 295.86 256.2 301.46 256.2 307.06 256.2 312.66 256.2 320.39 255.63 312.79 326.13 312.62 395.93 312.66 413.03"/><path class="cls-3" d="M353.45,183.92c-5.41-7.88-16-16.4-16.57-26.25a31.6,31.6,0,0,1-16.39,4.64v-.78a29.1,29.1,0,0,1-3.83.62,30.71,30.71,0,0,1-3.82-.62v.78a31.64,31.64,0,0,1-16.4-4.64c-.61,9.85-11.16,18.37-16.57,26.25-8.36,12.19-10.86,25.41-9.91,40.15,3.43-3.45,15.08-3,19.44-1.19-.36,7.14-1.6,15-2,22-.5,9.86.19,12.52,9.91,12.51,5.14,0,10.31.08,15.49.16v.12l3.82-.06,3.83.06v-.12c5.17-.08,10.34-.16,15.48-.16,9.73,0,10.42-2.65,9.91-12.51-.36-7-1.6-14.88-1.95-22,4.35-1.8,16-2.26,19.43,1.19C364.31,209.33,361.81,196.11,353.45,183.92Z"/><line class="cls-13" x1="297.94" y1="182.95" x2="335.39" y2="182.95"/><line class="cls-13" x1="297.94" y1="190.36" x2="335.39" y2="190.36"/><line class="cls-13" x1="297.94" y1="186.65" x2="335.39" y2="186.65"/><line class="cls-13" x1="297.94" y1="194.06" x2="335.39" y2="194.06"/><line class="cls-13" x1="297.94" y1="201.47" x2="335.39" y2="201.47"/><line class="cls-13" x1="297.94" y1="197.76" x2="335.39" y2="197.76"/><line class="cls-13" x1="297.94" y1="205.17" x2="335.39" y2="205.17"/><line class="cls-13" x1="297.94" y1="212.58" x2="335.39" y2="212.58"/><line class="cls-13" x1="297.94" y1="208.87" x2="335.39" y2="208.87"/><line class="cls-13" x1="297.94" y1="216.28" x2="335.39" y2="216.28"/><line class="cls-13" x1="297.94" y1="223.69" x2="335.39" y2="223.69"/><line class="cls-13" x1="297.94" y1="219.98" x2="335.39" y2="219.98"/><polygon class="cls-2" points="309.26 256.31 298.5 280.07 287.75 280.07 287.75 219.3 287.75 163.97 298.5 158.54 298.5 158.54 309.26 219.3 309.26 256.31"/><path class="cls-2" d="M287.75,164c22.86-1.8-1.51,52.63-2.22,68.34-.82,17.9,6,53.42-20.64,45.16.76-36.74,2.68-74,13.85-109.12"/><polygon class="cls-2" points="323.87 256.31 334.62 280.07 345.37 280.07 345.37 219.3 345.37 163.97 334.62 158.54 334.62 158.54 323.87 219.3 323.87 256.31"/><path class="cls-2" d="M345.37,164c-22.86-1.8,1.51,52.63,2.23,68.34.81,17.9-6,53.42,20.64,45.16-.76-36.74-2.69-74-13.85-109.12"/><path class="cls-5" d="M534.26,433.48c2.14-.36,4.47-2.17,6.57-2.22,2.76-.07,4.1,1.56,6.57,2.22"/><path class="cls-5" d="M529.87,433.48c-2.14-.36-4.47-2.17-6.57-2.22-2.76-.07-4.1,1.56-6.57,2.22"/><path class="cls-1" d="M516.05,125.76c2.23,6.27,6.84,20.41,6.58,28-1,3.67-7,7.69-11.12,14.8-.86,1.51-2.23,2.68-3.19,4.16-3.45,4.07-8.45,7.32-11.27,11.78-3.2,5.07-3.58,12.19-4.58,17.86A478.52,478.52,0,0,0,485,283.82c0,7.87.73,26.95,11.05,27.69,7.83.55,3.58-4.37,1.85-8-2-4.15-2.21-8.89-1.94-14.15a8.35,8.35,0,0,1,3.85,0c1.38,4.7,6.09,7.85,7.06,1.39.64-4.23-4.72-5.59-6.26-9.66-1.71-4.51-.18-11-1.36-16.27-1.34-6,2.66-12.19,2.72-18.66.11-11.27-2.73-18.5-.64-28.85,1.36-6.75.48-18.41,4.41-24v.59c-2.83,10.91.14,28.72.14,39.53,0,10.56-.43,21.28.11,31.8,1.23.11,2.43.24,3.61.38l2.12,141.29v1.62a10,10,0,0,0-.24,1.33c-.27,4.84-3,6-6.58,8.13a34.56,34.56,0,0,1-10.5,4.6c-3.15.65-8.58-.2-9.39,3.57-1.12,5.2,4,4.29,7.36,4.8,1.89.29,3.32,1,5.31,1.08a38,38,0,0,0,6.73-.45c4.46-.64,9-.67,13.64-1.14,4-.4,10.45,1,11.31-3.6,1-5.44-2.15-10.49-1.58-15.63v-2.85h0v-1.25h0l-2.08-139c2,.25,4.18.45,6.4.54v.07h3v-.07c2.22-.09,4.34-.29,6.4-.54l-2.09,139h0v1.25h0v2.85c.56,5.14-2.6,10.19-1.59,15.63.87,4.64,7.28,3.2,11.31,3.6,4.63.47,9.18.5,13.65,1.14a38,38,0,0,0,6.73.45c2-.08,3.41-.79,5.3-1.08,3.35-.51,8.49.4,7.37-4.8-.81-3.77-6.24-2.92-9.39-3.57a34.56,34.56,0,0,1-10.5-4.6c-3.56-2.16-6.32-3.29-6.59-8.13a7.58,7.58,0,0,0-.24-1.33V406.9l2.11-141.29c1.19-.14,2.39-.27,3.62-.38.53-10.52.1-21.24.1-31.8,0-10.81,3-28.62.15-39.53v-.59c3.93,5.58,3,17.24,4.41,24,2.09,10.35-.75,17.58-.64,28.85.06,6.47,4.06,12.68,2.72,18.66-1.19,5.28.34,11.76-1.36,16.27-1.54,4.07-6.9,5.43-6.26,9.66,1,6.46,5.67,3.31,7-1.39a8.67,8.67,0,0,1,3.86,0c.26,5.26,0,10-1.94,14.15-1.73,3.63-6,8.55,1.85,8,10.32-.74,11.06-19.82,11-27.69a480.89,480.89,0,0,0-7.45-81.49c-1-5.67-1.38-12.79-4.58-17.86-2.82-4.46-7.83-7.71-11.27-11.78-1-1.48-3.69-2.65-4.55-4.16a59.46,59.46,0,0,1-8-27.28c.34-5.94,2.41-12,3.67-15.49"/><polygon class="cls-2" points="538.27 413.03 543.87 413.03 549.47 413.03 555.07 413.03 560.67 413.03 563.05 389.81 563.31 343.65 563.31 311.74 560.67 256.2 555.07 256.2 549.47 256.2 543.87 256.2 538.27 256.2 530.54 255.63 538.14 326.13 538.31 395.93 538.27 413.03"/><path class="cls-2" d="M529.92,418.83c-.55-3.72-1.42-7.13-1.44-9.64-3.93-.18-11.66-2.25-15.22-.72-1.75.74-7.09,5.07-9,6.33-2.1,1.36-3.59,2.74-6,3.54-.54.18-1.14.34-1.79.49h-8.25c-5,0-9,5.68-9,12.69h0c-.13,2,5.43,2,10.38,2h39l1.32-2h0Z"/><path class="cls-2" d="M537.44,418.83c.55-3.72,1.42-7.13,1.44-9.64,3.93-.18,11.65-2.25,15.22-.72,1.75.74,7.09,5.07,9,6.33,2.09,1.36,3.59,2.74,6,3.54.54.18,1.14.34,1.79.49h8.25c5,0,9,5.68,9,12.69h0c.13,2-5.44,2-10.38,2h-39l-1.32-2h0V418.83Z"/><path class="cls-1" d="M555.43,105.8c-.55-4-2.34-7.84-3-11.86s-.26-8.13-1.87-11.86c-3.42-7.92-10.51-10.84-17.83-10.49-7.32-.35-14.41,2.57-17.82,10.49C513.3,85.81,513.67,90,513,93.94s-2.45,7.81-3,11.86c-1,7,3.89,17.68,7.62,23.11,3.56,5.18,7.81,11.42,14.15,11.49h1.83c6.34-.07,10.59-6.31,14.15-11.49C551.54,123.48,556.37,112.76,555.43,105.8Z"/><path class="cls-1" d="M554.18,105.52c.25-2,3.3-5.17,4.64-1.42,1.1,3.06-2.31,5.85-1.46,8.89a5.68,5.68,0,0,1-1.55,1.34,6.71,6.71,0,0,1-.7-2.6"/><path class="cls-3" d="M536.87,102.31c6-4.81,7.63-2.09,12.08,1-3.07.78-8.17,2.28-12.08-1"/><path class="cls-4" d="M545.87,102a3.11,3.11,0,0,0-.19-1c-1.58-1.06-3-1.61-4.94-1a2.93,2.93,0,0,0,.14,4.14l0,0a13.41,13.41,0,0,0,4,0A3,3,0,0,0,545.87,102Z"/><path class="cls-2" d="M543.93,102.1a1,1,0,1,1-1-1A1,1,0,0,1,543.93,102.1Z"/><path class="cls-5" d="M537.61,104.74c1.94,1.45,4.2,1.8,6.44,2.28"/><path class="cls-3" d="M527.26,102.48c-6-4.82-7.63-2.1-12.08,1,3.07.79,8.17,2.28,12.08-1"/><path class="cls-4" d="M518.26,102.14a3.11,3.11,0,0,1,.19-1c1.58-1.06,3-1.62,4.94-1a2.92,2.92,0,0,1,.79,2,3,3,0,0,1-1,2.19,12.78,12.78,0,0,1-4,0A3,3,0,0,1,518.26,102.14Z"/><path class="cls-2" d="M520.2,102.27a1,1,0,1,0,1-1A1,1,0,0,0,520.2,102.27Z"/><path class="cls-5" d="M526.52,104.9c-1.94,1.46-4.2,1.8-6.44,2.29"/><path class="cls-6" d="M531.45,115.35a1,1,0,1,1-1-1A1,1,0,0,1,531.45,115.35Z"/><path class="cls-6" d="M535.73,115.35a1,1,0,1,1-1-1A1,1,0,0,1,535.73,115.35Z"/><path class="cls-7" d="M539.31,124.58l-.69-.2-.7-.16-.7-.15-.68-.16a4.84,4.84,0,0,1-.65-.19,6.44,6.44,0,0,1-.61-.24,3,3,0,0,1-.54-.33l-.18.17-.22.15-.23.14-.25.14-.24.16-.23.17-.14.13-.13-.13-.23-.17-.24-.16-.25-.14-.24-.14-.21-.15a1,1,0,0,1-.18-.17,3,3,0,0,1-.54.33,6.44,6.44,0,0,1-.61.24,4.84,4.84,0,0,1-.65.19l-.68.16-.7.15-.71.16-.68.2c-.22.08-.44.17-.65.27l1.46.53,1.76.62c.62.21,1.27.42,1.93.6.38.11.76.2,1.15.29v.18a2.1,2.1,0,0,0,.42-.09c.14,0,.28.07.42.09v-.18c.39-.09.77-.18,1.15-.29.66-.18,1.31-.39,1.93-.6l1.76-.62,1.46-.53Z"/><path class="cls-1" d="M511,105.52c-.25-2-3.3-5.17-4.65-1.42-1.09,3.06,2.32,5.85,1.46,8.89a5.72,5.72,0,0,0,1.56,1.34,6.71,6.71,0,0,0,.7-2.6"/><path class="cls-8" d="M526.77,79.17a2.3,2.3,0,0,0,1.64,1.54,4.25,4.25,0,0,0,2.05-.34,12.66,12.66,0,0,1,2.27-.69,3,3,0,0,1,2.33.5,4,4,0,0,1,.81-.61c.29-.17.59-.31.88-.46a7.37,7.37,0,0,0,.87-.48,3.74,3.74,0,0,0,.78-.65,14.82,14.82,0,0,0,1.6.5c.54.15,1.08.26,1.64.36s1.11.17,1.69.22,1.17.1,1.77.13A49.44,49.44,0,0,1,547.69,85c.74,1.93,1.38,3.88,2,5.84s1.25,3.91,1.95,5.88,2.16,3.93,3.11,5.89a83.46,83.46,0,0,0-1-12.33,32.8,32.8,0,0,0-2.84-10.73A16.66,16.66,0,0,0,544,72.08c-3.12-1.76-7.17-2.69-12.4-2.51a28,28,0,0,0-5.9.75,18.18,18.18,0,0,0-4.82,1.89A15.94,15.94,0,0,0,517,75.33a20.51,20.51,0,0,0-3,4.44c-.46.87-1,1.77-1.46,2.7s-1,1.88-1.51,2.85-.26,2-.66,3-.05,2-.29,3a17.83,17.83,0,0,0-.15,3.65c0,1-.31,6.81,0,8a37.22,37.22,0,0,0,2.38-5.73c.6-2.29.31-4.18.93-6.87s1.2-5.3,1.6-7.25a8.3,8.3,0,0,1,1.88-3.33"/><polygon class="cls-2" points="529.92 413.03 524.32 413.03 518.72 413.03 513.12 413.03 507.52 413.03 505.14 389.81 504.88 343.65 504.88 311.74 507.52 256.2 513.12 256.2 518.72 256.2 524.32 256.2 529.92 256.2 537.65 255.63 530.04 326.13 529.88 395.93 529.92 413.03"/><path class="cls-2" d="M570.71,183.92c-5.41-7.88-16-16.4-16.57-26.25a31.6,31.6,0,0,1-16.39,4.64v-.78a29.1,29.1,0,0,1-3.83.62,30.71,30.71,0,0,1-3.82-.62v.78a31.64,31.64,0,0,1-16.4-4.64c-.61,9.85-11.16,18.37-16.57,26.25-8.36,12.19-10.86,25.41-9.91,40.15,3.43-3.45,15.08-3,19.44-1.19-.36,7.14-1.6,15-2,22-.5,9.86.19,12.52,9.91,12.51,5.14,0,10.31.08,15.49.16v.12l3.82-.06,3.83.06v-.12c5.17-.08,10.34-.16,15.48-.16,9.73,0,10.42-2.65,9.91-12.51-.36-7-1.6-14.88-2-22,4.35-1.8,16-2.26,19.43,1.19C581.57,209.33,579.07,196.11,570.71,183.92Z"/><polygon class="cls-2" points="526.52 256.31 515.76 280.07 505.01 280.07 505.01 219.3 505.01 163.97 515.76 158.54 515.76 158.54 526.52 219.3 526.52 256.31"/><path class="cls-2" d="M505,163.7c22.85-1.48-1.24,46.73-1.87,60.67-.73,15.89,6.28,47.46-20.41,40,.57-32.61,2.31-65.72,13.29-96.81"/><polygon class="cls-2" points="541.13 256.31 551.88 280.07 562.63 280.07 562.63 219.3 562.63 163.97 551.88 158.54 551.88 158.54 541.13 219.3 541.13 256.31"/><path class="cls-14" d="M553,115.71c-4.81,4.12-6.16,5.34-7.62,7.6-1.31,2-4.25,6.6-6.31,8.06-1.37,1-4.35,2.53-5.44,3.75a2.06,2.06,0,0,0-.29.37,3.47,3.47,0,0,0-.3-.37c-1.09-1.22-4.07-2.78-5.44-3.75-2.06-1.46-5-6-6.31-8.06-1.46-2.26-2.81-3.48-7.62-7.6-2.06-1.76.56,6.56,1.36,8.09,1.18,2.24,3,6.27,4.86,8.1a67.66,67.66,0,0,0,5.3,5c1.87,1.55,7,4,8.15,2.87,1.17,1.1,6.28-1.32,8.14-2.87a67.66,67.66,0,0,0,5.3-5c1.81-1.83,3.68-5.86,4.86-8.1C552.4,122.27,555,114,553,115.71Z"/><path class="cls-14" d="M539.75,119.35a46.38,46.38,0,0,0-6.45.32,46.44,46.44,0,0,0-6.46-.32c-2.18.2-4.11,1.24-6.05,1.57l.19.23c.64,1.68,5,.38,6.77.22,1.31-.11,4.45,0,5.55-.67,1.09.72,4.23.56,5.54.67,1.81.16,6.13,1.46,6.78-.22l.18-.23C543.86,120.59,541.93,119.55,539.75,119.35Z"/><path class="cls-12" d="M509.92,101.12c-2.12-5.69-3.67-23.76,4.65-24.56,1-14.6,26.9-10.2,34.63-5.89,4.1,6.44,7.53,21.74,6.09,30.34-.32.5-.82,1.27-1.24,1.95-.88-4.74-2.87-10-6.67-12.82-1.4-12.67-23.49-8.3-33.29-5.89,1.45,3.68-1.52,10.52-2.26,14.72-1.85,1.07-2.19,2.3-3.27,4.19"/><path class="cls-12" d="M509.92,95.69c.1-3.45-.41-7.69,0-11.39.57-5.28.46-4.27,3.92-7.75,4.13-4.15,8.94-7.7,15.09-8s15,.39,19.54,4c4,3.22,2.93,3.55,3.54,8.85.42,3.63,0,6.67,4,8.26.56,3.46.54,7-2.6,9.11-1.59-3.49-4.48-8.58-4.19-12.51-1.57-1.35-3-4.63-5.13-5.73-3.51-1.8-7.26,1.13-10.92.86-4-.29-6-2.89-10.13-2.73s-5.2,3.39-9.57,2.85c-2.25,4.54-1.39,9.8-3.51,14.14"/><path class="cls-2" d="M562.85,163.7c-22.85-1.48,1.23,46.73,1.87,60.67.73,15.89-6.28,47.46,20.41,40-.58-32.61-2.31-65.72-13.29-96.81"/><path class="cls-12" d="M771.57,120.13c.51.13,1,.25,1.55.35.31,1.16-.21,2.42.29,3.51,1.37,0,3,.28,4.33.29.25,3.93-2.45,6.46-6.2,7.74-1.18.61-1.51,2.24-4.73.57-.46.52-1,1.78-1.61,1.95-.78-10.71,4.4-9.68,6.28-18.7,0,2.38,1.28,3.28,1.79,5.43"/><path class="cls-12" d="M729.08,120.13c-.52.13-1,.25-1.55.35-.32,1.16.2,2.42-.3,3.51-1.37,0-3,.28-4.32.28-.26,3.94,2.45,6.47,6.19,7.75,1.18.61,1.51,2.24,4.74.57.45.52,1,1.78,1.61,1.95.77-10.71-4.4-9.68-6.29-18.7,0,2.38-1.27,3.28-1.79,5.43"/><path class="cls-1" d="M733.31,125.76c2.23,6.27,6.84,20.41,6.58,28-1,3.67-7,7.69-11.12,14.8-.86,1.51-2.23,2.68-3.19,4.16-3.45,4.07-8.45,7.32-11.27,11.78-3.2,5.07-3.58,12.19-4.58,17.86a478.85,478.85,0,0,0-7.45,81.49c0,7.87.73,26.95,11.05,27.69,7.83.55,3.58-4.37,1.85-8-2-4.15-2.21-8.89-1.94-14.15a8.35,8.35,0,0,1,3.85,0c1.38,4.7,6.09,7.85,7.06,1.39.64-4.23-4.72-5.59-6.26-9.66-1.71-4.51-.18-11-1.36-16.27-1.34-6,2.66-12.19,2.72-18.66.11-11.27-2.73-18.5-.64-28.85,1.36-6.75.48-18.41,4.41-24v.59c-2.83,10.91.14,28.72.14,39.53,0,10.56-.43,21.28.11,31.8,1.23.11,2.43.24,3.61.38L729,406.92v1.62a10,10,0,0,0-.24,1.33c-.27,4.84-3,6-6.58,8.13a34.56,34.56,0,0,1-10.5,4.6c-3.15.65-8.58-.2-9.39,3.57-1.12,5.2,4,4.29,7.36,4.8,1.89.29,3.32,1,5.31,1.08a38,38,0,0,0,6.73-.45c4.46-.64,9-.67,13.64-1.14,4-.4,10.45,1,11.31-3.6,1-5.44-2.15-10.49-1.58-15.63v-2.85h0v-1.25h0l-2.08-139c2,.25,4.18.45,6.4.54v.07h3v-.07c2.22-.09,4.34-.29,6.4-.54l-2.09,139h0v1.25h0v2.85c.56,5.14-2.6,10.19-1.59,15.63.87,4.64,7.28,3.2,11.31,3.6,4.63.47,9.18.5,13.65,1.14a38,38,0,0,0,6.73.45c2-.08,3.41-.79,5.3-1.08,3.35-.51,8.49.4,7.37-4.8-.81-3.77-6.24-2.92-9.39-3.57a34.56,34.56,0,0,1-10.5-4.6c-3.56-2.16-6.32-3.29-6.59-8.13a7.58,7.58,0,0,0-.24-1.33v-1.62L775,265.63c1.19-.14,2.39-.27,3.62-.38.53-10.52.1-21.24.1-31.8,0-10.81,3-28.62.15-39.53v-.59c3.93,5.58,3,17.24,4.41,24,2.09,10.35-.75,17.58-.64,28.85.06,6.47,4.06,12.68,2.72,18.66-1.19,5.28.34,11.76-1.36,16.27-1.54,4.07-6.9,5.43-6.26,9.66,1,6.46,5.67,3.31,7-1.39a8.67,8.67,0,0,1,3.86,0c.26,5.26,0,10-1.94,14.15-1.73,3.63-6,8.55,1.85,8,10.32-.74,11.06-19.82,11-27.69a480.89,480.89,0,0,0-7.45-81.49c-1-5.67-1.38-12.79-4.58-17.86-2.82-4.46-7.83-7.71-11.27-11.78-1-1.48-3.69-2.65-4.55-4.16a59.46,59.46,0,0,1-8-27.28c.34-5.94,2.41-12,3.67-15.49"/><path class="cls-2" d="M747.18,418.83c-.55-3.72-1.42-7.13-1.44-9.64-3.93-.18-11.66-2.25-15.22-.72-1.75.74-7.09,5.07-9,6.33-2.1,1.36-3.59,2.74-6,3.54-.54.18-1.14.34-1.79.49h-8.25c-5,0-9,5.68-9,12.69h0c-.13,2,5.43,2,10.38,2h39l1.32-2h0V418.83Z"/><path class="cls-2" d="M754.7,418.83c.55-3.72,1.42-7.13,1.44-9.64,3.93-.18,11.65-2.25,15.22-.72,1.75.74,7.09,5.07,9,6.33,2.09,1.36,3.59,2.74,6,3.54.54.18,1.14.34,1.79.49h8.25c5,0,9,5.68,9,12.69h0c.13,2-5.44,2-10.38,2H756l-1.32-2h0V418.83Z"/><path class="cls-1" d="M772.69,105.8c-.55-4-2.34-7.84-3-11.86s-.26-8.13-1.87-11.86C764.4,74.16,757.31,71.24,750,71.59c-7.32-.35-14.41,2.57-17.82,10.49-1.61,3.73-1.24,7.94-1.87,11.86s-2.45,7.81-3,11.86c-1,7,3.89,17.68,7.62,23.11,3.56,5.18,7.81,11.42,14.15,11.49h1.83c6.34-.07,10.59-6.31,14.15-11.49C768.8,123.48,773.63,112.76,772.69,105.8Z"/><path class="cls-1" d="M771.44,105.52c.25-2,3.3-5.17,4.64-1.42,1.1,3.06-2.31,5.85-1.46,8.89a5.68,5.68,0,0,1-1.55,1.34,6.71,6.71,0,0,1-.7-2.6"/><path class="cls-3" d="M754.13,102.31c6-4.81,7.63-2.09,12.08,1-3.07.78-8.17,2.28-12.08-1"/><path class="cls-4" d="M763.13,102a3.11,3.11,0,0,0-.19-1c-1.58-1.06-3-1.61-4.94-1a2.93,2.93,0,0,0,.14,4.14s0,0,.05,0a13.41,13.41,0,0,0,4,0A3,3,0,0,0,763.13,102Z"/><path class="cls-2" d="M761.19,102.1a1,1,0,1,1-1-1A1,1,0,0,1,761.19,102.1Z"/><path class="cls-5" d="M754.87,104.74c1.94,1.45,4.2,1.8,6.44,2.28"/><path class="cls-3" d="M744.52,102.48c-6-4.82-7.63-2.1-12.08,1,3.07.79,8.17,2.28,12.08-1"/><path class="cls-4" d="M735.52,102.14a3.11,3.11,0,0,1,.19-1c1.58-1.06,3-1.62,4.94-1a2.92,2.92,0,0,1,.79,2,3,3,0,0,1-1,2.19,12.78,12.78,0,0,1-4,0A3,3,0,0,1,735.52,102.14Z"/><path class="cls-2" d="M737.46,102.27a1,1,0,1,0,1-1A1,1,0,0,0,737.46,102.27Z"/><path class="cls-5" d="M743.78,104.9c-1.94,1.46-4.2,1.8-6.44,2.29"/><path class="cls-6" d="M748.71,115.35a1,1,0,1,1-1-1A1,1,0,0,1,748.71,115.35Z"/><path class="cls-6" d="M753,115.35a1,1,0,1,1-1-1A1,1,0,0,1,753,115.35Z"/><path class="cls-7" d="M756.57,124.58l-.69-.2-.7-.16-.7-.15-.68-.16a4.84,4.84,0,0,1-.65-.19,6.44,6.44,0,0,1-.61-.24,3,3,0,0,1-.54-.33l-.18.17-.22.15-.23.14-.25.14-.24.16-.23.17-.14.13-.13-.13-.23-.17-.24-.16-.25-.14-.24-.14-.21-.15a1,1,0,0,1-.18-.17,3,3,0,0,1-.54.33,6.44,6.44,0,0,1-.61.24,4.84,4.84,0,0,1-.65.19l-.68.16-.7.15-.71.16-.68.2c-.22.08-.44.17-.65.27l1.46.53L747,126c.62.21,1.27.42,1.93.6.38.11.76.2,1.15.29v.18a2.1,2.1,0,0,0,.42-.09c.14,0,.28.07.42.09v-.18c.39-.09.77-.18,1.15-.29.66-.18,1.31-.39,1.93-.6l1.76-.62,1.46-.53C757,124.75,756.79,124.66,756.57,124.58Z"/><path class="cls-1" d="M728.23,105.52c-.25-2-3.3-5.17-4.65-1.42-1.09,3.06,2.32,5.85,1.46,8.89a5.72,5.72,0,0,0,1.56,1.34,6.71,6.71,0,0,0,.7-2.6"/><path class="cls-8" d="M744,79.17a2.3,2.3,0,0,0,1.64,1.54,4.25,4.25,0,0,0,2.05-.34,12.66,12.66,0,0,1,2.27-.69,3,3,0,0,1,2.33.5,4,4,0,0,1,.81-.61c.29-.17.59-.31.88-.46a7.37,7.37,0,0,0,.87-.48,3.74,3.74,0,0,0,.78-.65,14.82,14.82,0,0,0,1.6.5c.54.15,1.08.26,1.64.36s1.11.17,1.69.22,1.17.1,1.77.13A48.35,48.35,0,0,1,765,85c.74,1.93,1.38,3.88,2,5.84s1.25,3.91,2,5.88,2.16,3.93,3.11,5.89a83.46,83.46,0,0,0-1-12.33,32.8,32.8,0,0,0-2.84-10.73,16.63,16.63,0,0,0-6.87-7.45c-3.12-1.76-7.17-2.69-12.4-2.51a27.87,27.87,0,0,0-5.9.75,18.18,18.18,0,0,0-4.82,1.89,15.94,15.94,0,0,0-3.87,3.12,20.51,20.51,0,0,0-3,4.44c-.46.87-1,1.77-1.46,2.7s-1,1.88-1.51,2.85-.26,2-.66,3,0,2-.29,3A17.25,17.25,0,0,0,727.2,95c0,1-.31,6.81,0,8a37.22,37.22,0,0,0,2.38-5.73c.6-2.29.31-4.18.93-6.87s1.2-5.3,1.6-7.25a8.28,8.28,0,0,1,1.89-3.4"/><polygon class="cls-15" points="747.18 413.03 741.58 413.03 735.98 413.03 730.38 413.03 724.78 413.03 722.4 389.81 722.14 343.65 722.14 311.74 724.78 256.2 730.38 256.2 735.98 256.2 741.58 256.2 747.18 256.2 754.91 255.63 747.3 326.13 747.14 395.93 747.18 413.03"/><polygon class="cls-2" points="743.78 256.31 733.02 280.07 722.27 280.07 722.27 219.3 722.27 163.97 733.02 158.54 733.02 158.54 743.78 219.3 743.78 256.31"/><path class="cls-14" d="M770.22,115.71c-4.81,4.12-6.16,5.34-7.62,7.6-1.31,2-4.25,6.6-6.31,8.06-1.37,1-4.35,2.53-5.44,3.75a2.06,2.06,0,0,0-.29.37,3.47,3.47,0,0,0-.3-.37c-1.09-1.22-4.07-2.78-5.44-3.75-2.06-1.46-5-6-6.31-8.06-1.46-2.26-2.81-3.48-7.62-7.6-2.06-1.76.56,6.56,1.36,8.09,1.18,2.24,3,6.27,4.86,8.1a67.66,67.66,0,0,0,5.3,5c1.87,1.55,7,4,8.15,2.87,1.17,1.1,6.28-1.32,8.14-2.87a67.66,67.66,0,0,0,5.3-5c1.81-1.83,3.68-5.86,4.86-8.1C769.66,122.27,772.28,114,770.22,115.71Z"/><path class="cls-14" d="M757,119.35a46.38,46.38,0,0,0-6.45.32,46.44,46.44,0,0,0-6.46-.32c-2.18.2-4.11,1.24-6.05,1.57l.19.23c.64,1.68,5,.38,6.77.22,1.31-.11,4.45,0,5.55-.67,1.09.72,4.23.56,5.54.67,1.81.16,6.13,1.46,6.78-.22l.18-.23C761.12,120.59,759.19,119.55,757,119.35Z"/><path class="cls-12" d="M727.18,101.12c-2.12-5.69-3.67-23.76,4.65-24.56,1-14.6,26.9-10.2,34.63-5.89,4.1,6.44,7.53,21.74,6.09,30.34-.32.5-.82,1.27-1.24,1.95-.88-4.74-2.87-10-6.67-12.82-1.4-12.67-23.49-8.3-33.29-5.89,1.45,3.68-1.52,10.52-2.26,14.72-1.85,1.07-2.19,2.3-3.27,4.19"/><path class="cls-12" d="M727.18,95.69c.1-3.45-.41-7.69,0-11.39.57-5.28.46-4.27,3.92-7.75,4.13-4.15,8.94-7.7,15.09-8s14.95.39,19.54,4c4,3.22,2.93,3.55,3.54,8.85.42,3.63,0,6.67,4,8.26.56,3.46.54,7-2.6,9.11-1.59-3.49-4.48-8.58-4.19-12.51-1.57-1.35-3-4.63-5.13-5.73-3.51-1.8-7.26,1.13-10.92.86-4-.29-6-2.89-10.13-2.73s-5.2,3.39-9.57,2.85c-2.25,4.54-1.39,9.8-3.51,14.14"/><path class="cls-12" d="M725.82,90.61c-3.93-.17-2.09-2.55-2.72-5.43-.1-.48-.72-7.16-.86-6.75,1.23-3.79,1.6-1.14,4.94-3.92,2.68-2.24,2.71-3.05,4.79-5.58,4.31-5.28,2.88-3.86,10.29-3.59,4.65.17,15.32-6.66,14.89.73,2.61.16,5.34.05,7.94.2,0,.8.21,1.72.21,2.51,2-.06,3.27,1,5.23.89.06,3.07.61,5.6.89,8.6,5.9,1.1,8,13.31,1.79,14.92-3.59.93-3.72-3.39-6-5.31-3.11-2.67-6.25-3-10-3.53-5.78-.81-14.45-2.56-20.52-1.2"/><path class="cls-12" d="M723.78,88.58c-.5.85-.54,1.9-1.44,2.71,1.45,2.44.71,5.79,4.06,6.21-1.09,4.11.23,7.93.87,12a14.12,14.12,0,0,1,1.84,0c-.47-3.33,1.45-5.8,1.46-8.72s-1.54-5.43-1.46-8.73c-1.12-.63-3.3-1.57-4.51-2.07"/><path class="cls-12" d="M771.65,94.91c-.2,1.18.66,1.83,1.35,2.52,1,1,.4.9,0,2.11,1-.09,1,.72.56,1.37,1.9.07-.78,2-1.13,2.69,1.26.37.25,1.43-.34,1.93h.42c-.13,1,0,1.5-1.32,1.33,0-1,.36-1.89.3-2.8-.51-.34-.35-1.33-.32-1.94a6.54,6.54,0,0,0,.12-1.25c-.08-.41-.36-.54-.44-.82a6.32,6.32,0,0,1,.32-3.7"/><path class="cls-16" d="M757.85,166.92c6.44.57,11.07-1.87,16.76-4.07-2.33-5.12-7.24-10.46-8.19-16.64-2.34,2.2-8.7,3.47-12,4"/><path class="cls-2" d="M750,150.74c-2.84,5.38-3.54,10.79-5.55,16.18-6.44.57-11.07-1.87-16.77-4.07,2.34-5.12,7.25-10.46,8.2-16.64,2.34,2.2,8.7,3.47,12,4"/><path class="cls-2" d="M722.27,163.7l-9,3.85c-9.93,28.1-12.3,57.86-13.08,87.41H700v20.41h19.72V255h-.1c.52-7.23-.41-17.69.79-30.59C721.68,210.47,745.12,162.22,722.27,163.7Z"/><path class="cls-2" d="M780.18,163.7l9,3.85c9.94,28.1,12.3,57.86,13.09,87.41h.2v20.41H782.74V255h.1c-.53-7.23.4-17.69-.79-30.59C780.76,210.47,757.33,162.22,780.18,163.7Z"/><circle class="cls-17" cx="738.86" cy="181.59" r="2.04"/><rect class="cls-18" x="699.99" y="240.72" width="19.26" height="5.85"/><rect class="cls-19" x="699.99" y="251.64" width="19.26" height="5.85"/><rect class="cls-20" x="699.99" y="262.56" width="19.26" height="5.85"/><rect class="cls-21" x="699.99" y="229.8" width="19.26" height="5.85"/><path class="cls-22" d="M769.94,157.33c-1.62-2.62-3.24-5.37-3.7-8.37-1.89,1.77-7,2.79-9.64,3.2l1,5.17Z"/><rect class="cls-21" x="727.92" y="307.87" width="13.73" height="15.95"/><rect class="cls-23" x="782.7" y="251.64" width="19.76" height="23.73"/><polygon class="cls-15" points="755.53 413.03 761.13 413.03 766.73 413.03 772.33 413.03 777.93 413.03 780.31 389.81 780.57 343.65 780.57 311.74 777.93 256.2 772.33 256.2 766.73 256.2 761.13 256.2 755.53 256.2 747.8 255.63 755.4 326.13 755.57 395.93 755.53 413.03"/><polygon class="cls-2" points="758.39 256.31 769.14 280.07 779.89 280.07 779.89 219.3 779.89 163.97 769.14 158.54 769.14 158.54 758.39 219.3 758.39 256.31"/><path class="cls-2" d="M788,183.92c-5.41-7.88-16-16.4-16.57-26.25A31.65,31.65,0,0,1,755,162.31s-2.53,3.78-3.83,3.91c-1.29-.13-2.57-4.4-3.82-4.69v.78a31.64,31.64,0,0,1-16.4-4.64c-.61,9.85-11.16,18.37-16.57,26.25-8.36,12.19-10.86,25.41-9.91,40.15,3.43-3.45,15.08-3,19.44-1.19-.36,7.14-1.6,15-2,22-.5,9.86.19,12.52,9.91,12.51,5.14,0,10.31.08,15.49.16v.12l3.82-.06,3.83.06v-.12c5.17-.08,10.34-.16,15.48-.16,9.73,0,10.42-2.65,9.91-12.51-.36-7-1.6-14.88-2-22,4.35-1.8,16-2.26,19.43,1.19C798.83,209.33,796.33,196.11,788,183.92Z"/><polygon class="cls-24" points="765.98 175.48 735.7 175.48 735.7 175.69 730.18 181.59 735.7 187.49 735.7 187.7 765.98 187.7 771.7 181.59 765.98 175.48"/><polygon class="cls-25" points="765.98 195.74 735.7 195.74 735.7 195.94 730.18 201.85 735.7 207.75 735.7 207.96 765.98 207.96 771.7 201.85 765.98 195.74"/><polygon class="cls-26" points="765.98 215.99 735.7 215.99 735.7 216.2 730.18 222.1 735.7 228 735.7 228.21 765.98 228.21 771.7 222.1 765.98 215.99"/><polygon class="cls-27" points="765.98 236.25 735.7 236.25 735.7 236.46 730.18 242.36 735.7 248.26 735.7 248.47 765.98 248.47 771.7 242.36 765.98 236.25"/><circle class="cls-28" cx="737.64" cy="181.59" r="2.04"/><circle class="cls-28" cx="764.42" cy="181.59" r="2.04"/><circle class="cls-28" cx="737.64" cy="201.85" r="2.04"/><circle class="cls-28" cx="764.42" cy="201.85" r="2.04"/><circle class="cls-28" cx="737.64" cy="222.1" r="2.04"/><circle class="cls-28" cx="764.42" cy="222.1" r="2.04"/><circle class="cls-28" cx="737.64" cy="242.36" r="2.04"/><circle class="cls-28" cx="764.42" cy="242.36" r="2.04"/><rect class="cls-2" x="756.82" y="170.05" width="1.57" height="86.26"/><polygon class="cls-21" points="800.46 215.99 779.54 215.99 779.54 193.33 796.92 193.33 800.46 215.99"/><path class="cls-21" d="M757.88,163.47l1.25,3.49c6.44.32,11.08-1.06,16.77-2.31a15.1,15.1,0,0,0-1.08-1.18Z"/><path class="cls-1" d="M950.57,125.76c2.23,6.27,6.84,20.41,6.58,28-1,3.67-7,7.69-11.12,14.8-.86,1.51-2.23,2.68-3.19,4.16-3.45,4.07-8.45,7.32-11.27,11.78-3.2,5.07-3.58,12.19-4.58,17.86a478.85,478.85,0,0,0-7.45,81.49c0,7.87.73,26.95,11.05,27.69,7.83.55,3.58-4.37,1.85-8-2-4.15-2.21-8.89-1.94-14.15a8.35,8.35,0,0,1,3.85,0c1.38,4.7,6.09,7.85,7.06,1.39.64-4.23-3.36-5.59-4.9-9.66-1.71-4.51-1.54-11-2.72-16.27-1.34-6,2.66-12.19,2.72-18.66.11-11.27-2.73-18.5-.64-28.85,1.36-6.75.48-18.41,4.41-24v.59c-2.83,10.9.14,28.72.14,39.53,0,10.56-.43,21.28.11,31.8,1.23.11,2.43.24,3.61.38l2.12,141.29v1.62a10,10,0,0,0-.24,1.33c-.27,4.84-3,6-6.58,8.13a34.56,34.56,0,0,1-10.5,4.6c-3.15.65-8.58-.2-9.39,3.57-1.12,5.2,4,4.29,7.36,4.8,1.89.29,3.32,1,5.31,1.08a38,38,0,0,0,6.73-.45c4.46-.64,9-.67,13.64-1.14,4-.4,10.45,1,11.31-3.6,1-5.44-2.15-10.49-1.58-15.63v-2.85h0v-1.25h0l-2.08-139c2,.25,4.18.45,6.4.54v.07h3v-.07c2.22-.09,4.34-.29,6.4-.54l-2.09,139h0v1.25h0v2.85c.56,5.14-2.6,10.19-1.59,15.63.87,4.64,7.28,3.2,11.31,3.6,4.63.47,9.18.5,13.65,1.14a38,38,0,0,0,6.73.45c2-.08,3.41-.79,5.3-1.08,3.35-.51,8.49.4,7.37-4.8-.81-3.77-6.24-2.92-9.39-3.57a34.56,34.56,0,0,1-10.5-4.6c-3.56-2.16-6.32-3.29-6.59-8.13a7.58,7.58,0,0,0-.24-1.33v-1.62l2.11-141.29c1.19-.14,2.39-.27,3.62-.38.53-10.52.1-21.24.1-31.8,0-10.81,3-28.63.15-39.53v-.59c3.93,5.58,3,17.24,4.41,24,2.09,10.35-.75,17.58-.64,28.85.06,6.47,4.06,12.68,2.72,18.66-1.19,5.28-1,11.76-2.72,16.27-1.54,4.07-5.54,5.43-4.9,9.66,1,6.46,5.67,3.31,7-1.39a8.67,8.67,0,0,1,3.86,0c.26,5.26,0,10-1.94,14.15-1.73,3.63-6,8.55,1.85,8,10.32-.74,11.06-19.82,11-27.69a480.89,480.89,0,0,0-7.45-81.49c-1-5.67-1.38-12.79-4.58-17.86-2.82-4.46-7.83-7.71-11.27-11.78-1-1.48-3.69-2.65-4.55-4.16a59.46,59.46,0,0,1-8-27.28c.34-5.94,2.41-12,3.67-15.49"/><polygon class="cls-2" points="972.79 413.03 978.39 413.03 983.99 413.03 989.59 413.03 995.19 413.03 997.57 389.81 997.83 343.65 997.83 311.74 995.19 256.2 989.59 256.2 983.99 256.2 978.39 256.2 972.79 256.2 965.06 255.63 972.66 326.13 972.83 395.93 972.79 413.03"/><path class="cls-2" d="M964.44,418.83c-.55-3.72-1.42-7.13-1.44-9.64-3.93-.18-11.66-2.25-15.22-.72-1.75.74-7.09,5.07-9,6.33-2.1,1.36-3.59,2.74-6,3.54-.54.18-1.14.34-1.79.49h-8.25c-5,0-9,5.68-9,12.69h0c-.13,2,5.43,2,10.38,2h39l1.32-2h0V418.83Z"/><path class="cls-2" d="M972,418.83c.55-3.72,1.42-7.13,1.44-9.64,3.93-.18,11.65-2.25,15.22-.72,1.75.74,7.09,5.07,9,6.33,2.09,1.36,3.59,2.74,6,3.54.54.18,1.14.34,1.79.49h8.25c5,0,9,5.68,9,12.69h0c.13,2-5.44,2-10.38,2h-39l-1.32-2h0V418.83Z"/><path class="cls-1" d="M990,105.8c-.55-4-2.34-7.84-3-11.86s-.26-8.13-1.87-11.86c-3.42-7.92-10.51-10.84-17.83-10.49-7.32-.35-14.41,2.57-17.82,10.49-1.61,3.73-1.24,7.94-1.87,11.86s-2.45,7.81-3,11.86c-1,7,3.89,17.68,7.62,23.11,3.56,5.18,7.81,11.42,14.15,11.49h1.83c6.34-.07,10.59-6.31,14.15-11.49C986.06,123.48,990.89,112.76,990,105.8Z"/><path class="cls-1" d="M988.7,105.52c.25-2,3.3-5.17,4.64-1.42,1.1,3.06-2.31,5.85-1.46,8.89a5.68,5.68,0,0,1-1.55,1.34,6.71,6.71,0,0,1-.7-2.6"/><path class="cls-3" d="M971.39,102.31c6-4.81,7.63-2.09,12.08,1-3.07.78-8.17,2.28-12.08-1"/><path class="cls-4" d="M980.39,102a3.11,3.11,0,0,0-.19-1c-1.58-1.06-3-1.61-4.94-1a2.93,2.93,0,0,0,.14,4.14s0,0,.05,0a13.41,13.41,0,0,0,4,0A3,3,0,0,0,980.39,102Z"/><path class="cls-2" d="M978.45,102.1a1,1,0,1,1-1-1A1,1,0,0,1,978.45,102.1Z"/><path class="cls-5" d="M972.13,104.74c1.94,1.45,4.2,1.8,6.44,2.28"/><path class="cls-5" d="M968.78,97c2.14-.36,4.47-2.17,6.57-2.22,2.76-.07,4.1,1.56,6.57,2.22"/><path class="cls-3" d="M961.78,102.48c-6-4.82-7.63-2.1-12.08,1,3.07.79,8.17,2.28,12.08-1"/><path class="cls-4" d="M952.78,102.14a3.11,3.11,0,0,1,.19-1c1.58-1.06,3-1.62,4.94-1a2.92,2.92,0,0,1,.79,2,3,3,0,0,1-1,2.19,12.78,12.78,0,0,1-4,0A3,3,0,0,1,952.78,102.14Z"/><path class="cls-2" d="M954.72,102.27a1,1,0,1,0,1-1A1,1,0,0,0,954.72,102.27Z"/><path class="cls-5" d="M961,104.9c-1.94,1.46-4.2,1.8-6.44,2.29"/><path class="cls-5" d="M964.39,97.2c-2.14-.35-4.47-2.16-6.57-2.22-2.76-.07-4.1,1.57-6.57,2.22"/><path class="cls-6" d="M966,115.35a1,1,0,1,1-1-1A1,1,0,0,1,966,115.35Z"/><path class="cls-6" d="M970.25,115.35a1,1,0,1,1-1-1A1,1,0,0,1,970.25,115.35Z"/><path class="cls-7" d="M973.15,124.58l-.69-.2-.7-.16-.7-.15-.68-.16a4.84,4.84,0,0,1-.65-.19,6.44,6.44,0,0,1-.61-.24,3,3,0,0,1-.54-.33,1,1,0,0,1-.18.17l-.22.15-.23.14-.25.14-.24.16-.23.17-.14.13-.13-.13-.23-.17-.24-.16-.25-.14-.23-.14-.22-.15a1,1,0,0,1-.18-.17,3,3,0,0,1-.54.33,6.44,6.44,0,0,1-.61.24,4.84,4.84,0,0,1-.65.19l-.68.16-.7.15-.7.16-.69.2c-.22.08-.44.17-.65.27l1.46.53,1.76.62c.62.21,1.27.42,1.93.6.38.11.76.2,1.15.29v.18l.42-.09.43.09v-.18c.39-.09.77-.18,1.15-.29.66-.18,1.31-.39,1.93-.6l1.76-.62,1.46-.53Z"/><path class="cls-1" d="M945.49,105.52c-.25-2-3.3-5.17-4.65-1.42-1.09,3.06,2.32,5.85,1.46,8.89a5.72,5.72,0,0,0,1.56,1.34,6.71,6.71,0,0,0,.7-2.6"/><polygon class="cls-2" points="964.44 413.03 958.84 413.03 953.24 413.03 947.64 413.03 942.04 413.03 939.66 389.81 939.4 343.65 939.4 311.74 942.04 256.2 947.64 256.2 953.24 256.2 958.84 256.2 964.44 256.2 972.17 255.63 964.57 326.13 964.4 395.93 964.44 413.03"/><path class="cls-29" d="M1005.23,183.92c-5.41-7.88-16-16.4-16.57-26.25a31.6,31.6,0,0,1-16.39,4.64v-.78a12.06,12.06,0,0,1-7.65,0v.78a31.64,31.64,0,0,1-16.4-4.64c-.61,9.85-11.16,18.37-16.57,26.25-8.36,12.19-10.86,25.41-9.91,40.15,3.43-3.45,15.08-3,19.44-1.19-.36,7.14-1.6,15-2,22-.5,9.86.19,12.52,9.91,12.51,5.14,0,10.31.08,15.49.16v.12l3.82-.06,3.83.06v-.12c5.17-.08,10.34-.16,15.48-.16,9.73,0,10.42-2.65,9.91-12.51-.36-7-1.6-14.88-2-22,4.35-1.8,16-2.26,19.43,1.19C1016.09,209.33,1013.59,196.11,1005.23,183.92Z"/><polygon class="cls-30" points="961.04 256.31 950.28 280.07 939.53 280.07 939.53 219.3 939.53 163.97 950.28 158.54 950.28 158.54 961.04 219.3 961.04 256.31"/><path class="cls-30" d="M939.53,164c22.86-1.8-1.51,52.63-2.22,68.34-.82,17.9,6,53.42-20.64,45.16.76-36.74,2.68-74,13.85-109.12"/><polygon class="cls-30" points="975.65 256.31 986.4 280.07 997.15 280.07 997.15 219.3 997.15 163.97 986.4 158.54 986.4 158.54 975.65 219.3 975.65 256.31"/><path class="cls-30" d="M997.15,164c-22.86-1.8,1.51,52.63,2.23,68.34.81,17.9-6,53.42,20.64,45.16-.76-36.74-2.69-74-13.85-109.12"/><path class="cls-31" d="M949.73,305.84c3.22,0,3.23-5,0-5S946.51,305.84,949.73,305.84Z"/><path class="cls-31" d="M955.17,312c3.21,0,3.22-5,0-5S951.94,312,955.17,312Z"/><path class="cls-31" d="M948.38,330.28c3.21,0,3.22-5,0-5S945.15,330.28,948.38,330.28Z"/><path class="cls-31" d="M948.38,322.13c3.21,0,3.22-5,0-5S945.15,322.13,948.38,322.13Z"/><path class="cls-31" d="M953.13,322.81c3.22,0,3.22-5,0-5S949.91,322.81,953.13,322.81Z"/><path class="cls-31" d="M955.17,341.82c3.21,0,3.22-5,0-5S951.94,341.82,955.17,341.82Z"/><path class="cls-31" d="M955.17,325.53c3.21,0,3.22-5,0-5S951.94,325.53,955.17,325.53Z"/><path class="cls-31" d="M955.17,329.6c3.21,0,3.22-5,0-5S951.94,329.6,955.17,329.6Z"/><path class="cls-31" d="M952.45,340.46c3.22,0,3.22-5,0-5S949.23,340.46,952.45,340.46Z"/><path class="cls-31" d="M944.3,343.86c3.22,0,3.22-5,0-5S941.08,343.86,944.3,343.86Z"/><path class="cls-31" d="M958.56,358.79c3.22,0,3.22-5,0-5S955.34,358.79,958.56,358.79Z"/><path class="cls-31" d="M949.05,365.58c3.22,0,3.23-5,0-5S945.83,365.58,949.05,365.58Z"/><path class="cls-31" d="M950.41,357.44c3.22,0,3.23-5,0-5S947.19,357.44,950.41,357.44Z"/><path class="cls-31" d="M950.41,357.44c3.22,0,3.23-5,0-5S947.19,357.44,950.41,357.44Z"/><path class="cls-31" d="M957.88,303.12c3.22,0,3.22-5,0-5S954.66,303.12,957.88,303.12Z"/><path class="cls-31" d="M960.6,319.41c3.21,0,3.22-5,0-5S957.37,319.41,960.6,319.41Z"/><path class="cls-31" d="M947,312c3.22,0,3.22-5,0-5S943.78,312,947,312Z"/><path class="cls-31" d="M940,418.49a5.68,5.68,0,0,0,1.75-3.81,5.51,5.51,0,0,0-1.75-3.8,2.5,2.5,0,0,0-3.54,3.53c.3.32.15,0,.32.4-.18-.37,0,.43,0-.13v-.21c-.08.27-.09.3,0,.08-.14.3-.06.13-.32.4a2.5,2.5,0,1,0,3.54,3.54Z"/><path class="cls-31" d="M988.31,198.68c-.28-.6-.07-.16,0,0a1.48,1.48,0,0,1,.08.36c.09.42,0-.06,0-.21a5.58,5.58,0,0,0,.12.89,3,3,0,0,0,1.35,2,3.17,3.17,0,0,0,3.14-.06,4.18,4.18,0,0,0,1.74-2.63,3.9,3.9,0,0,0-.47-3.61,3.11,3.11,0,0,0-2.39-1.2,2.5,2.5,0,1,0,0,5c.19,0-.87-.17-.51-.05a1.68,1.68,0,0,1-.67-.36c-.37-.28-.08,0-.36-.36s-.16-.23-.11-.13-.27-.7-.19-.43-.07-.44-.06-.45v.18c0,.33,0-.38,0-.36s-.14.52-.16.58-.16.41,0,.1-.12.23-.12.24l.9-.9c.34-.13.44-.17.27-.12s-.07,0,.42,0l1.88,1.08.2.45a1.27,1.27,0,0,1-.06-.28l.06.44-.06-.46a7.4,7.4,0,0,0-.65-2.21,2.51,2.51,0,0,0-3.42-.9,2.57,2.57,0,0,0-.9,3.42Z"/><path class="cls-31" d="M982.42,200.94l.28.16c.22.15.17.11-.16-.12,0,.11.29.28.38.37a5.09,5.09,0,0,0,.79.75,3.63,3.63,0,0,0,3.95.2,2.47,2.47,0,0,0,1.24-2.16c0-1.73-.63-3.61-2.48-4.14a5.33,5.33,0,0,0-1.43-.17h-.54c-.06,0,.77.16.28,0-.2-.05-.51-.23.21.11a2.56,2.56,0,0,0-3.42.9,2.53,2.53,0,0,0,.9,3.42,6.23,6.23,0,0,0,2.82.57c.49,0-.63-.18-.25,0,.2.08-.65-.35-.37-.16,0,0-.55-.47-.34-.26-.29-.4-.38-.51-.28-.34s0,.05-.06-.17c-.19-.44-.06-.09,0,0,.09.31,0-.18,0-.25a2.26,2.26,0,0,0,0,.52l1.23-2.16c.35-.13.43-.17.26-.12s-.08,0,.37,0a1.25,1.25,0,0,1,.68.17c.24.11.28.12.13,0,.08.06.49.47.24.17l-.23-.25a6.39,6.39,0,0,0-1.64-1.33,2.5,2.5,0,1,0-2.52,4.32Z"/><path class="cls-31" d="M986.81,210.05c.19-.18.12-.13-.22.14l.2-.12c-.42.17-.52.21-.27.15-.48,0-.58.06-.32.06-.81-.05-.22,0,0,.05s.21.07-.11-.06l.37.17a2.5,2.5,0,0,0,2.53-4.31,6.49,6.49,0,0,0-2.94-.85,4.14,4.14,0,0,0-2.81,1.24,2.5,2.5,0,0,0,0,3.53,2.55,2.55,0,0,0,3.54,0Z"/><path class="cls-31" d="M991.42,204.48a5.34,5.34,0,0,0-1,1.22,3.83,3.83,0,0,0-.41,1.91,2.5,2.5,0,0,0,5,0v-.34a1.45,1.45,0,0,1-.24.88c.17-.3-.48.51-.15.2.12-.1.22-.22.33-.33a2.5,2.5,0,0,0-3.53-3.54Z"/><polygon class="cls-32" points="1014.68 204.89 1009.41 202.33 1005.23 183.93 1010.5 183.93 1014.68 204.89"/><path class="cls-33" d="M962.73,247.78l.35.21c.47.27-.12-.19,0,0,0,0,.35.34.13.1s.09.17.12.21c.24.36-.05-.08,0-.09a2.06,2.06,0,0,1,.12.35c0,.08.13.6.06.21s0,.18,0,.22a2.5,2.5,0,0,0,5,0,6.37,6.37,0,0,0-3.28-5.55,2.5,2.5,0,1,0-2.75,4.17l.23.14Z"/><path class="cls-12" d="M987.47,87.46c-.51-1.37-1-2.76-1.43-4.21a23.25,23.25,0,0,1-.59-4.7,22.22,22.22,0,0,0-.68-4.8,13.34,13.34,0,0,0-6.72-8.08,30.86,30.86,0,0,0-21.91,0,13.27,13.27,0,0,0-6.71,8.08,21.64,21.64,0,0,0-.69,4.8,23.25,23.25,0,0,1-.59,4.7c-.4,1.45-.92,2.84-1.43,4.21s-1,2.74-1.43,4.17a23.78,23.78,0,0,0-.82,8.6c.25,2.8,1.73,4.62,1.73,3.32a52,52,0,0,1,.34-5.85,49.67,49.67,0,0,1,1-5.66c1.06-4.45,2.49-7.82,4.85-10.41S958,77.25,962.79,76a11.61,11.61,0,0,1,8.52,0c4.77,1.3,8,3.1,10.41,5.68s3.79,6,4.85,10.41a49.67,49.67,0,0,1,1,5.66,52,52,0,0,1,.34,5.85c0,1.3,1.48-.52,1.73-3.32a23.78,23.78,0,0,0-.82-8.6A29.8,29.8,0,0,0,987.47,87.46Z"/><path class="cls-12" d="M943.66,104.73l-.2-.38C943.33,104.85,943.35,105.09,943.66,104.73Z"/><path class="cls-12" d="M990.73,104.35l-.2.38C990.84,105.09,990.86,104.85,990.73,104.35Z"/><path class="cls-34" d="M997.94,417.4a11.48,11.48,0,0,1,.53-3.34,11.32,11.32,0,0,0,2,6c.4-.44,0-1.32.25-1.87a6,6,0,0,0,2.7-1.47c-1.5-.58-5.17-2.66-4.17-1.36"/><path class="cls-35" d="M988.25,209.28c3.22,0,3.22-5,0-5S985,209.28,988.25,209.28Z"/><path class="cls-35" d="M988.25,218.44c3.22,0,3.22-5,0-5S985,218.44,988.25,218.44Z"/><path class="cls-35" d="M988.25,206.22c3.22,0,3.22-5,0-5S985,206.22,988.25,206.22Z"/><path class="cls-36" d="M990.29,205.2c3.21,0,3.22-5,0-5S987.06,205.2,990.29,205.2Z"/><path class="cls-36" d="M987.23,197.06c3.22,0,3.22-5,0-5S984,197.06,987.23,197.06Z"/><path class="cls-37" d="M988.25,224.55c3.22,0,3.22-5,0-5S985,224.55,988.25,224.55Z"/><path class="cls-37" d="M988.25,207.24c3.22,0,3.22-5,0-5S985,207.24,988.25,207.24Z"/><path class="cls-37" d="M992.32,216.4c3.22,0,3.23-5,0-5S989.1,216.4,992.32,216.4Z"/><path class="cls-1" d="M1167.83,134.91c2.23,6.27,6.84,20.4,6.58,28-1,3.67-7,7.69-11.12,14.8-.86,1.51-2.23,2.68-3.19,4.16-3.45,4.07-8.45,7.32-11.27,11.78-3.2,5.07-3.58,12.19-4.58,17.86A478.85,478.85,0,0,0,1136.8,293c0,7.87.73,26.95,11,27.68,7.83.56,3.58-4.36,1.85-8-2-4.15-2.21-8.89-1.94-14.16a8.63,8.63,0,0,1,3.85,0c1.38,4.7,6.09,7.85,7.06,1.39.64-4.23-3.36-5.59-4.9-9.66-1.71-4.52-1.54-11-2.72-16.28-1.34-6,2.66-12.19,2.72-18.65.11-11.27-2.73-18.5-.64-28.85,1.36-6.75.48-18.41,4.41-24v.59c-2.83,10.9.14,28.72.14,39.52,0,10.57-.43,21.29.11,31.81,1.23.1,2.43.23,3.61.38l2.12,141.28v1.63a10,10,0,0,0-.24,1.33c-.27,4.84-3,6-6.58,8.12a33.87,33.87,0,0,1-10.5,4.6c-3.15.65-8.58-.19-9.39,3.58-1.12,5.2,4,4.29,7.36,4.8,1.89.29,3.32,1,5.31,1.08a38,38,0,0,0,6.73-.45c4.46-.64,9-.67,13.64-1.14,4-.41,10.45,1,11.31-3.6,1-5.44-2.15-10.49-1.58-15.63v-2.85h0v-1.25h0l-2.08-139c2,.25,4.18.44,6.4.54v.07h3v-.07c2.22-.1,4.34-.29,6.4-.54l-2.09,139h0v1.25h0v2.85c.56,5.14-2.6,10.19-1.59,15.63.87,4.64,7.28,3.19,11.31,3.6,4.63.47,9.18.5,13.65,1.14a38,38,0,0,0,6.73.45c2-.08,3.41-.79,5.3-1.08,3.35-.51,8.49.4,7.37-4.8-.81-3.77-6.24-2.93-9.39-3.58a34.08,34.08,0,0,1-10.5-4.6c-3.56-2.15-6.32-3.28-6.59-8.12a7.58,7.58,0,0,0-.24-1.33v-1.63l2.11-141.28c1.19-.15,2.39-.28,3.62-.38.53-10.52.1-21.24.1-31.81,0-10.8,3-28.62.15-39.52v-.59c3.93,5.58,3,17.24,4.41,24,2.09,10.35-.75,17.58-.64,28.85.06,6.46,4.06,12.68,2.72,18.65-1.19,5.29-1,11.76-2.72,16.28-1.54,4.07-5.54,5.43-4.9,9.66,1,6.46,5.67,3.31,7-1.39a8.67,8.67,0,0,1,3.86,0c.26,5.27,0,10-1.94,14.16-1.73,3.63-6,8.55,1.85,8,10.32-.73,11.06-19.81,11-27.68a479.86,479.86,0,0,0-7.45-81.49c-1-5.67-1.38-12.79-4.58-17.86-2.82-4.46-7.83-7.71-11.27-11.78-1-1.48-3.69-2.65-4.55-4.16a59.46,59.46,0,0,1-8-27.28c.34-5.94,2.41-12,3.67-15.49"/><polygon class="cls-2" points="1190.05 422.18 1195.65 422.18 1201.25 422.18 1206.85 422.18 1212.45 422.18 1214.83 398.96 1215.09 352.8 1215.09 320.89 1212.45 265.35 1206.85 265.35 1201.25 265.35 1195.65 265.35 1190.05 265.35 1182.32 264.78 1189.92 335.28 1190.09 405.07 1190.05 422.18"/><path class="cls-2" d="M1181.7,428c-.55-3.72-1.42-7.13-1.44-9.64-3.93-.18-11.66-2.25-15.22-.72-1.75.74-7.09,5.07-9,6.33-2.1,1.36-3.59,2.74-6,3.54-.54.18-1.14.33-1.79.49H1140c-5,0-9,5.68-9,12.68h0c-.13,2,5.43,2,10.38,2h39l1.32-2h0Z"/><path class="cls-2" d="M1189.22,428c.55-3.72,1.42-7.13,1.44-9.64,3.93-.18,11.65-2.25,15.22-.72,1.75.74,7.09,5.07,9,6.33,2.09,1.36,3.59,2.74,6,3.54.54.18,1.14.33,1.79.49H1231c5,0,9,5.68,9,12.68h0c.13,2-5.44,2-10.38,2h-39l-1.32-2h0V428Z"/><path class="cls-1" d="M1207.21,115c-.55-4-2.34-7.85-3-11.86s-.26-8.13-1.87-11.86c-3.42-7.92-10.51-10.84-17.83-10.49-7.32-.35-14.41,2.57-17.82,10.49-1.61,3.73-1.24,7.94-1.87,11.86s-2.45,7.81-3,11.86c-1,7,3.89,17.68,7.62,23.11,3.56,5.18,7.81,11.42,14.15,11.49h1.83c6.34-.07,10.59-6.31,14.15-11.49C1203.32,132.63,1208.15,121.91,1207.21,115Z"/><path class="cls-1" d="M1206,114.67c.25-2,3.3-5.17,4.64-1.42,1.1,3.06-2.31,5.85-1.46,8.88a5.57,5.57,0,0,1-1.55,1.35,6.76,6.76,0,0,1-.7-2.6"/><path class="cls-3" d="M1188.65,111.46c6-4.81,7.63-2.1,12.08,1-3.07.78-8.17,2.28-12.08-1"/><path class="cls-4" d="M1197.65,111.13a3.11,3.11,0,0,0-.19-1c-1.58-1.06-3-1.61-4.94-1a2.93,2.93,0,0,0,.13,4.13l.06,0a13.41,13.41,0,0,0,4,0A3,3,0,0,0,1197.65,111.13Z"/><path class="cls-2" d="M1195.71,111.25a1,1,0,1,1-1-1A1,1,0,0,1,1195.71,111.25Z"/><path class="cls-5" d="M1189.39,113.89c1.94,1.45,4.2,1.79,6.44,2.28"/><path class="cls-5" d="M1186,106.19c2.14-.36,4.47-2.17,6.57-2.22,2.76-.07,4.1,1.56,6.57,2.22"/><path class="cls-3" d="M1179,111.63c-6-4.82-7.63-2.1-12.08,1,3.07.78,8.17,2.28,12.08-1"/><path class="cls-4" d="M1170,111.29a3.11,3.11,0,0,1,.19-1c1.58-1.06,3-1.62,4.94-1a2.92,2.92,0,0,1,.79,2,3,3,0,0,1-1,2.19,12.78,12.78,0,0,1-4,0A3,3,0,0,1,1170,111.29Z"/><path class="cls-2" d="M1172,111.41a1,1,0,1,0,1-1A1,1,0,0,0,1172,111.41Z"/><path class="cls-5" d="M1178.3,114.05c-1.94,1.46-4.2,1.8-6.44,2.28"/><path class="cls-5" d="M1181.65,106.35c-2.14-.35-4.47-2.17-6.57-2.22-2.76-.07-4.1,1.56-6.57,2.22"/><path class="cls-6" d="M1183.23,124.5a1,1,0,1,1-1-1A1,1,0,0,1,1183.23,124.5Z"/><path class="cls-6" d="M1187.51,124.5a1,1,0,1,1-1-1A1,1,0,0,1,1187.51,124.5Z"/><path class="cls-7" d="M1190.41,133.73l-.69-.2-.7-.16-.7-.15-.68-.16a4.84,4.84,0,0,1-.65-.19,6.44,6.44,0,0,1-.61-.24,3,3,0,0,1-.54-.33l-.18.17-.22.15-.23.14-.25.14-.24.16-.23.17-.14.13-.13-.13-.23-.17-.24-.16-.25-.14-.23-.14-.22-.15-.18-.17a3,3,0,0,1-.54.33,6.44,6.44,0,0,1-.61.24,4.84,4.84,0,0,1-.65.19l-.68.16-.7.15-.7.16-.69.2c-.22.08-.44.17-.65.27l1.46.53,1.76.62c.62.21,1.27.41,1.93.6.38.11.76.2,1.15.29v.18l.42-.09.43.09V136c.39-.09.77-.18,1.15-.29.66-.19,1.31-.39,1.93-.6l1.76-.62,1.46-.53Z"/><path class="cls-1" d="M1162.75,114.67c-.25-2-3.3-5.17-4.65-1.42-1.09,3.06,2.32,5.85,1.46,8.88a5.61,5.61,0,0,0,1.56,1.35,6.76,6.76,0,0,0,.7-2.6"/><path class="cls-27" d="M1165.48,166.82c22.86-1.8-10.2,58.93-10.91,74.63-.82,17.91,6,53.43-20.64,45.17.76-36.74,6.07-74,17.24-109.12"/><path class="cls-27" d="M1205.92,166.82c-22.86-1.8,10,58.93,10.72,74.63.81,17.91-6,53.43,20.64,45.17-.76-36.74-6.08-74-17.25-109.12"/><path class="cls-31" d="M1167,315c3.22,0,3.23-5,0-5S1163.78,315,1167,315Z"/><path class="cls-31" d="M1172.43,321.09c3.21,0,3.22-5,0-5S1169.2,321.09,1172.43,321.09Z"/><path class="cls-31" d="M1165.64,339.43c3.21,0,3.22-5,0-5S1162.41,339.43,1165.64,339.43Z"/><path class="cls-31" d="M1165.64,331.28c3.21,0,3.22-5,0-5S1162.41,331.28,1165.64,331.28Z"/><path class="cls-31" d="M1170.39,332c3.22,0,3.22-5,0-5S1167.17,332,1170.39,332Z"/><path class="cls-31" d="M1172.43,351c3.21,0,3.22-5,0-5S1169.2,351,1172.43,351Z"/><path class="cls-31" d="M1172.43,334.67c3.21,0,3.22-5,0-5S1169.2,334.67,1172.43,334.67Z"/><path class="cls-31" d="M1172.43,338.75c3.21,0,3.22-5,0-5S1169.2,338.75,1172.43,338.75Z"/><path class="cls-31" d="M1169.71,349.61c3.22,0,3.22-5,0-5S1166.49,349.61,1169.71,349.61Z"/><path class="cls-31" d="M1161.56,353c3.22,0,3.22-5,0-5S1158.34,353,1161.56,353Z"/><path class="cls-31" d="M1175.82,367.94c3.22,0,3.22-5,0-5S1172.6,367.94,1175.82,367.94Z"/><path class="cls-31" d="M1166.31,374.73c3.22,0,3.23-5,0-5S1163.09,374.73,1166.31,374.73Z"/><path class="cls-31" d="M1167.67,366.58c3.22,0,3.23-5,0-5S1164.45,366.58,1167.67,366.58Z"/><path class="cls-31" d="M1167.67,366.58c3.22,0,3.23-5,0-5S1164.45,366.58,1167.67,366.58Z"/><path class="cls-31" d="M1175.14,312.27c3.22,0,3.22-5,0-5S1171.92,312.27,1175.14,312.27Z"/><path class="cls-31" d="M1177.86,328.56c3.21,0,3.22-5,0-5S1174.63,328.56,1177.86,328.56Z"/><path class="cls-31" d="M1164.28,321.09c3.22,0,3.22-5,0-5S1161.06,321.09,1164.28,321.09Z"/><path class="cls-12" d="M1204.73,98.11c-.51-1.26-1-2.53-1.43-3.86a20,20,0,0,1-.59-4.29,18.59,18.59,0,0,0-.68-4.39,12.53,12.53,0,0,0-6.72-7.39,33.71,33.71,0,0,0-21.91,0,12.46,12.46,0,0,0-6.71,7.39A18.43,18.43,0,0,0,1166,90a20,20,0,0,1-.59,4.29c-.4,1.33-.92,2.6-1.43,3.86s-1,2.5-1.43,3.8a20.15,20.15,0,0,0-.82,7.87c.25,2.56,1.73,4.22,1.73,3a43.42,43.42,0,0,1,.34-5.35,41.19,41.19,0,0,1,1-5.18c1.06-4.06,2.49-7.15,4.85-9.51s5.64-4,10.4-5.2a12.79,12.79,0,0,1,8.52,0c4.77,1.19,8,2.83,10.41,5.2s3.79,5.45,4.85,9.51a41.19,41.19,0,0,1,1,5.18,43.42,43.42,0,0,1,.34,5.35c0,1.18,1.48-.48,1.73-3a20.15,20.15,0,0,0-.82-7.87A25.31,25.31,0,0,0,1204.73,98.11Z"/><path class="cls-12" d="M1160.92,113.89l-.2-.34C1160.59,114,1160.61,114.23,1160.92,113.89Z"/><path class="cls-12" d="M1208,113.55l-.2.34C1208.1,114.23,1208.12,114,1208,113.55Z"/><path class="cls-14" d="M1204,124.18c-4.81,4.11-6.16,5.34-7.62,7.6-1.31,2-4.25,6.6-6.31,8.06-1.37,1-4.35,2.53-5.44,3.75a2.06,2.06,0,0,0-.29.37,3.47,3.47,0,0,0-.3-.37c-1.09-1.22-4.07-2.78-5.44-3.75-2.06-1.46-5-6-6.31-8.06-1.46-2.26-2.81-3.49-7.62-7.6-2.06-1.76.56,6.56,1.36,8.09,1.18,2.24,3,6.27,4.86,8.1a67.66,67.66,0,0,0,5.3,5c1.87,1.55,7,4,8.15,2.87,1.17,1.1,6.28-1.32,8.14-2.87a67.66,67.66,0,0,0,5.3-5c1.81-1.83,3.68-5.86,4.86-8.1C1203.46,130.74,1206.08,122.42,1204,124.18Z"/><path class="cls-14" d="M1190.81,127.82a64.76,64.76,0,0,1-12.91,0c-2.18.2-4.11,1.24-6.05,1.57l.19.23c.64,1.68,5,.38,6.77.22,1.31-.11,4.45,0,5.55-.67,1.09.72,4.23.56,5.54.67,1.81.16,6.13,1.46,6.78-.22l.18-.23C1194.92,129.06,1193,128,1190.81,127.82Z"/><polygon class="cls-2" points="1181.7 422.18 1176.1 422.18 1170.5 422.18 1164.9 422.18 1159.3 422.18 1156.92 398.96 1156.66 352.8 1156.66 320.89 1159.3 265.35 1164.9 265.35 1170.5 265.35 1176.1 265.35 1181.7 265.35 1189.43 264.78 1181.83 335.28 1181.66 405.07 1181.7 422.18"/><path class="cls-27" d="M1222.49,196c-5.41-8.76-4.78-20.51-16.57-29.17-12.74,2-28.18,0-40.44,0-15.84,6.79-11.16,20.41-16.57,29.17-8.36,13.53-10.86,28.22-9.91,44.59,3.43-3.83,15.08-3.32,19.44-1.32-.21,4.55-1.44,13.3-2,24.46-.5,11,.19,13.91,9.91,13.9,5.14,0,10.31.09,15.49.18v.13l3.82-.06,3.83.06v-.13c5.17-.09,10.34-.18,15.48-.18,9.73,0,10.42-2.94,9.91-13.9-.36-7.77-1.6-19.92-2-27.86,4.35-2,16,.89,19.43,4.72C1233.35,224.21,1230.85,209.52,1222.49,196Z"/><path class="cls-1" d="M1385.09,133.14c2.23,6.27,6.84,20.4,6.58,28-1,3.67-7,7.69-11.12,14.8-.86,1.51-2.23,2.67-3.19,4.15-3.45,4.08-8.45,7.33-11.27,11.79-3.2,5.07-3.58,12.19-4.58,17.86a477.83,477.83,0,0,0-7.45,81.49c0,7.87.73,26.95,11,27.68,7.83.56,3.58-4.36,1.85-8-2-4.15-2.21-8.89-1.94-14.16a8.63,8.63,0,0,1,3.85,0c1.38,4.69,6.09,7.85,7.06,1.39.64-4.23-3.36-5.59-4.9-9.66-1.71-4.52-1.54-11-2.72-16.28-1.34-6,2.66-12.19,2.72-18.65.11-11.27-2.73-18.5-.64-28.85,1.36-6.75.48-18.41,4.41-24v.59c-2.83,10.9,4.9,28.72,4.9,39.52,0,10.57-5.19,21.29-4.65,31.81,1.23.1,2.43.23,3.61.38l2.12,141.28v1.62a10.17,10.17,0,0,0-.24,1.34c-.27,4.84-3,6-6.58,8.12a33.87,33.87,0,0,1-10.5,4.6c-3.15.65-8.58-.19-9.39,3.57-1.12,5.21,4,4.3,7.36,4.81,1.89.29,3.32,1,5.31,1.08a38,38,0,0,0,6.73-.45c4.46-.64,9-.68,13.64-1.14,4-.41,10.45,1,11.31-3.6,1-5.44-2.15-10.5-1.58-15.63v-2.85h0V414.5h0l-2.08-139c2,.25,4.18.44,6.4.54v.07h3V276c2.22-.1,4.34-.29,6.4-.54l-2.09,139h0v1.25h0v2.85c.56,5.13-2.6,10.19-1.59,15.63.87,4.64,7.28,3.19,11.31,3.6,4.63.46,9.18.5,13.65,1.14a38,38,0,0,0,6.73.45c2-.08,3.41-.79,5.3-1.08,3.35-.51,8.49.4,7.37-4.81-.81-3.76-6.24-2.92-9.39-3.57a34.08,34.08,0,0,1-10.5-4.6c-3.56-2.15-6.32-3.28-6.59-8.12a7.69,7.69,0,0,0-.24-1.34v-1.62l2.3-141.28c1.19-.15,2.39-.28,3.62-.38.53-10.52-4.65-21.24-4.65-31.81,0-10.8,7.73-28.62,4.9-39.52v-.59c3.93,5.58,3,17.24,4.41,24,2.09,10.35-.75,17.58-.64,28.85.06,6.46,4.06,12.67,2.72,18.65-1.19,5.29-1,11.76-2.72,16.28-1.54,4.07-5.54,5.43-4.9,9.66,1,6.46,5.67,3.3,7-1.39a8.67,8.67,0,0,1,3.86,0c.26,5.27,0,10-1.94,14.16-1.73,3.63-6,8.55,1.85,8,10.32-.73,11.06-19.81,11-27.68a479.86,479.86,0,0,0-7.45-81.49c-1-5.67-1.38-12.79-4.58-17.86-2.82-4.46-7.83-7.71-11.27-11.79-1-1.48-3.69-2.64-4.55-4.15a59.53,59.53,0,0,1-8-27.29c.34-5.93,2.41-12,3.67-15.48"/><path class="cls-38" d="M1399,426.21c-.55-3.72-1.42-7.13-1.44-9.64-3.93-.18-11.66-2.25-15.22-.72-1.75.74-7.09,5.07-9,6.32-2.1,1.37-3.59,2.75-6,3.55-.54.17-1.14.33-1.79.49h-8.25c-5,0-9,5.68-9,12.68h0c-.13,2,5.43,2,10.37,2h39l1.32-2h0V426.21Z"/><path class="cls-38" d="M1406.48,426.21c.55-3.72,1.42-7.13,1.44-9.64,3.93-.18,11.65-2.25,15.22-.72,1.75.74,7.09,5.07,9,6.32,2.09,1.37,3.59,2.75,6,3.55.54.17,1.14.33,1.79.49h8.25c5,0,9,5.68,9,12.68h0c.13,2-5.44,2-10.38,2h-39l-1.32-2h0Z"/><path class="cls-1" d="M1424.47,113.18c-.55-4.05-2.34-7.85-3-11.86s-.26-8.13-1.87-11.86c-3.42-7.92-10.51-10.84-17.83-10.49-7.32-.35-14.41,2.57-17.82,10.49-1.61,3.73-1.24,7.94-1.87,11.86s-2.45,7.81-3,11.86c-.95,7,3.89,17.68,7.62,23.11,3.56,5.18,7.81,11.42,14.15,11.49h1.83c6.34-.07,10.59-6.31,14.15-11.49C1420.58,130.86,1425.41,120.14,1424.47,113.18Z"/><path class="cls-1" d="M1423.22,112.9c.25-2,3.3-5.17,4.64-1.42,1.1,3.06-2.31,5.85-1.46,8.88a5.57,5.57,0,0,1-1.55,1.35,6.76,6.76,0,0,1-.7-2.6"/><path class="cls-3" d="M1405.91,109.69c6-4.81,7.63-2.1,12.08,1-3.07.78-8.17,2.28-12.08-1"/><path class="cls-4" d="M1414.91,109.36a3.11,3.11,0,0,0-.19-1c-1.58-1.06-3-1.61-4.94-1a2.93,2.93,0,0,0,.13,4.13l.06.05a13.41,13.41,0,0,0,4,0A3,3,0,0,0,1414.91,109.36Z"/><path class="cls-2" d="M1413,109.48a1,1,0,1,1-1-1A1,1,0,0,1,1413,109.48Z"/><path class="cls-5" d="M1406.65,112.12c1.94,1.45,4.2,1.79,6.44,2.28"/><path class="cls-5" d="M1403.3,104.42c2.14-.36,4.47-2.17,6.57-2.22,2.76-.07,4.1,1.56,6.57,2.22"/><path class="cls-3" d="M1396.3,109.85c-6-4.81-7.63-2.09-12.08,1,3.07.78,8.17,2.28,12.08-1"/><path class="cls-4" d="M1387.3,109.52a3.11,3.11,0,0,1,.19-1c1.58-1.07,3-1.62,4.94-1a2.92,2.92,0,0,1,.79,2,3,3,0,0,1-1,2.19,12.78,12.78,0,0,1-4,0A3,3,0,0,1,1387.3,109.52Z"/><path class="cls-2" d="M1389.24,109.64a1,1,0,1,0,1-1A1,1,0,0,0,1389.24,109.64Z"/><path class="cls-5" d="M1395.56,112.28c-1.94,1.46-4.2,1.8-6.44,2.28"/><path class="cls-5" d="M1398.91,104.58c-2.14-.36-4.47-2.17-6.57-2.22-2.76-.07-4.1,1.56-6.57,2.22"/><path class="cls-6" d="M1400.49,122.73a1,1,0,1,1-1-1A1,1,0,0,1,1400.49,122.73Z"/><path class="cls-6" d="M1404.77,122.73a1,1,0,1,1-1-1A1,1,0,0,1,1404.77,122.73Z"/><path class="cls-7" d="M1407.67,132l-.69-.2-.7-.16-.7-.15-.68-.16a2.2,2.2,0,0,1-.65-.19,6.44,6.44,0,0,1-.61-.24,3,3,0,0,1-.54-.33l-.18.17-.22.15-.23.14-.25.14-.24.16-.23.17-.14.13a.8.8,0,0,0-.13-.13l-.23-.17-.24-.16-.25-.14-.23-.14-.22-.15-.18-.17a3,3,0,0,1-.54.33,6.44,6.44,0,0,1-.61.24c-.21.07-.43.14-.65.19l-.68.16-.7.15-.7.16-.69.2c-.22.08-.44.17-.65.27l1.46.53,1.76.62c.62.21,1.27.41,1.93.6l1.15.29v.18l.42-.09.43.09v-.18l1.15-.29c.66-.19,1.31-.39,1.93-.6l1.76-.62,1.46-.53A1.55,1.55,0,0,0,1407.67,132Z"/><path class="cls-1" d="M1380,112.9c-.25-2-3.3-5.17-4.65-1.42-1.09,3.06,2.32,5.85,1.46,8.88a5.61,5.61,0,0,0,1.56,1.35,6.76,6.76,0,0,0,.7-2.6"/><path class="cls-31" d="M1384.25,313.21c3.22,0,3.23-5,0-5S1381,313.21,1384.25,313.21Z"/><path class="cls-31" d="M1389.69,319.32c3.21,0,3.22-5,0-5S1386.46,319.32,1389.69,319.32Z"/><path class="cls-31" d="M1382.9,337.66c3.21,0,3.22-5,0-5S1379.67,337.66,1382.9,337.66Z"/><path class="cls-31" d="M1382.9,329.51c3.21,0,3.22-5,0-5S1379.67,329.51,1382.9,329.51Z"/><path class="cls-31" d="M1387.65,330.19c3.22,0,3.22-5,0-5S1384.43,330.19,1387.65,330.19Z"/><path class="cls-31" d="M1389.69,349.2c3.21,0,3.22-5,0-5S1386.46,349.2,1389.69,349.2Z"/><path class="cls-31" d="M1389.69,332.9c3.21,0,3.22-5,0-5S1386.46,332.9,1389.69,332.9Z"/><path class="cls-31" d="M1389.69,337c3.21,0,3.22-5,0-5S1386.46,337,1389.69,337Z"/><path class="cls-31" d="M1387,347.84c3.22,0,3.22-5,0-5S1383.78,347.84,1387,347.84Z"/><path class="cls-31" d="M1378.82,351.23c3.22,0,3.22-5,0-5S1375.6,351.23,1378.82,351.23Z"/><path class="cls-31" d="M1393.08,366.17c3.22,0,3.22-5,0-5S1389.86,366.17,1393.08,366.17Z"/><path class="cls-31" d="M1383.57,373c3.22,0,3.23-5,0-5S1380.35,373,1383.57,373Z"/><path class="cls-31" d="M1384.93,364.81c3.22,0,3.23-5,0-5S1381.71,364.81,1384.93,364.81Z"/><path class="cls-31" d="M1384.93,364.81c3.22,0,3.23-5,0-5S1381.71,364.81,1384.93,364.81Z"/><path class="cls-31" d="M1392.4,310.5c3.22,0,3.22-5,0-5S1389.18,310.5,1392.4,310.5Z"/><path class="cls-31" d="M1395.12,326.79c3.21,0,3.22-5,0-5S1391.89,326.79,1395.12,326.79Z"/><path class="cls-31" d="M1381.54,319.32c3.22,0,3.22-5,0-5S1378.32,319.32,1381.54,319.32Z"/><path class="cls-12" d="M1422,96.34c-.51-1.26-1-2.53-1.43-3.86a20,20,0,0,1-.59-4.29,18.59,18.59,0,0,0-.68-4.39,12.53,12.53,0,0,0-6.72-7.39,33.71,33.71,0,0,0-21.91,0A12.48,12.48,0,0,0,1384,83.8a18.11,18.11,0,0,0-.69,4.39,20,20,0,0,1-.59,4.29c-.4,1.33-.92,2.6-1.43,3.86s-1,2.5-1.43,3.8A19.94,19.94,0,0,0,1379,108c.25,2.56,1.73,4.22,1.73,3a43.42,43.42,0,0,1,.34-5.35,41.19,41.19,0,0,1,1-5.18c1.06-4.07,2.49-7.15,4.85-9.51s5.64-4,10.4-5.2a12.63,12.63,0,0,1,8.52,0c4.77,1.19,8.05,2.83,10.41,5.2s3.79,5.44,4.85,9.51a41.19,41.19,0,0,1,1,5.18,43.42,43.42,0,0,1,.34,5.35c0,1.18,1.48-.48,1.73-3a20.15,20.15,0,0,0-.82-7.87A32.9,32.9,0,0,0,1422,96.34Z"/><path class="cls-12" d="M1378.18,112.12l-.2-.35C1377.85,112.23,1377.87,112.45,1378.18,112.12Z"/><path class="cls-12" d="M1425.25,111.77l-.2.35C1425.36,112.45,1425.38,112.23,1425.25,111.77Z"/><path class="cls-14" d="M1421.28,122.41c-4.81,4.11-6.16,5.34-7.62,7.6-1.31,2-4.25,6.6-6.31,8.06-1.37,1-4.35,2.53-5.44,3.74a3.47,3.47,0,0,0-.29.38,3.57,3.57,0,0,0-.3-.38c-1.09-1.21-4.07-2.77-5.44-3.74-2.06-1.46-5-6-6.31-8.06-1.46-2.26-2.81-3.49-7.62-7.6-2.06-1.76.56,6.56,1.36,8.09,1.18,2.24,3,6.27,4.86,8.09a65.94,65.94,0,0,0,5.3,5c1.87,1.55,7,4,8.15,2.87,1.17,1.1,6.28-1.32,8.14-2.87a65.94,65.94,0,0,0,5.3-5c1.81-1.82,3.68-5.85,4.86-8.09C1420.72,129,1423.34,120.65,1421.28,122.41Z"/><path class="cls-14" d="M1408.07,126.05a64.76,64.76,0,0,1-12.91,0c-2.18.2-4.11,1.24-6.05,1.57l.19.23c.64,1.68,5,.38,6.77.22,1.31-.11,4.45.05,5.55-.67,1.09.72,4.23.56,5.54.67,1.81.16,6.13,1.46,6.78-.22l.18-.23C1412.18,127.29,1410.25,126.25,1408.07,126.05Z"/><polygon class="cls-2" points="1398.96 420.41 1393.36 420.41 1387.76 420.41 1382.16 420.41 1376.56 420.41 1374.18 397.19 1373.92 351.02 1373.92 319.12 1376.56 263.57 1382.16 263.57 1387.76 263.57 1393.36 263.57 1398.96 263.57 1406.69 263.01 1399.09 333.51 1398.92 403.3 1398.96 420.41"/><path class="cls-39" d="M1374.14,248c0-1.7,0-3.32.07-4.82.72-15.7,33.77-76.43,10.91-74.64l-17.7,10.69c-7.09,22.27-10.45,45.43-12.16,68.77Z"/><path class="cls-39" d="M1432,248c0-1.7,0-3.32-.07-4.82-.71-15.7-33.77-76.43-10.91-74.64l17.7,10.69c7.09,22.27,10.45,45.43,12.16,68.77Z"/><polygon class="cls-2" points="1407.31 420.41 1412.91 420.41 1418.51 420.41 1424.11 420.41 1429.71 420.41 1432.09 397.19 1432.35 351.02 1432.35 319.12 1429.71 263.57 1424.11 263.57 1418.51 263.57 1412.91 263.57 1407.31 263.57 1399.58 263.01 1407.18 333.51 1407.35 403.3 1407.31 420.41"/><path class="cls-40" d="M1444.65,195.17c-5.58-9-4.83-23.06-21.15-30.06-6.06,0-8.8.48-15.7.75h-10.16c-6.9-.27-9.64-.75-15.7-.75-16.32,7-15.57,21-21.15,30.06-8.62,14,7.07,18.78,11.56,20.84-.37,8.18,0,41-.36,49-.53,11.29-3.21,14.34,6.82,14.33,5.29,0,10.62.09,16,.18v.13l2.87,0v0h13v-.13c5.34-.09,10.66-.19,16-.18,10,0,7.35-3,6.82-14.33-.37-8,0-40.13-.36-48.31C1437.58,214.63,1453.27,209.13,1444.65,195.17Z"/></svg>