<svg id="Layer_1" data-name="Layer 1" xmlns="http://www.w3.org/2000/svg" xmlns:xlink="http://www.w3.org/1999/xlink" viewBox="0 0 1100 500"><defs><style>.cls-1,.cls-4,.cls-6,.cls-7{fill:none;}.cls-2{clip-path:url(#clip-path);}.cls-10,.cls-3{fill:#4d5b6a;}.cls-4{stroke:#599ec4;}.cls-4,.cls-6{stroke-width:0.34px;}.cls-5{fill:#fff;}.cls-6,.cls-7{stroke:#fff;}.cls-7{stroke-linecap:round;stroke-linejoin:round;stroke-width:0.38px;}.cls-8{fill:#eef5f9;}.cls-9{fill:#707b87;}.cls-10,.cls-12,.cls-15{font-size:24px;font-family:Menlo-Regular, Menlo;}.cls-11{fill:#67979b;}.cls-12,.cls-13{fill:#427e83;}.cls-14{fill:#b7626d;}.cls-15,.cls-16{fill:#a53c49;}.cls-17{clip-path:url(#clip-path-3);}</style><clipPath id="clip-path"><rect class="cls-1" x="99.5" y="165" width="162.56" height="170"/></clipPath><clipPath id="clip-path-3"><rect class="cls-1" x="826.91" y="160" width="180.17" height="180"/></clipPath></defs><title>passports</title><g class="cls-2"><g class="cls-2"><path class="cls-3" d="M104.72,221.53c4-10.11,8.35-27.14,25.81-29.66,3.63-3.37,1.44-7.55.52-11.86a12.82,12.82,0,0,0,11.4,2.63c2.76-12.08,26.41-17.56,38.45-17,11,.48,34-.23,39.32,16.94,3.63.32,7.19-2.07,10.74-4.48a24.62,24.62,0,0,0-.78,11.36c14.18-1,24.29,17.62,27,29.2,2.46,10.58,10.18,30.66-4,41.9A19,19,0,0,0,259.84,271a14.49,14.49,0,0,0-10.45,3.67c2.61,15.06-11.27,28.94-21.13,35.65-9.1,6.2-26.07,21-40.22,11-3.75,2-5.71,9.69-6.67,13.64-.76-3.79-1.57-11.46-7-13.92-9.8,10.71-30.25-.14-40-7.3-8.74-6.44-26.32-17.84-21.53-35.26-2.61-2.48-6.93-3.34-11.32-3.57,3.46-2.32,7.23-6.07,7-10.19-13-7-8.18-31.85-3.78-43.1"/><path class="cls-4" d="M104.72,221.53c4-10.11,8.35-27.14,25.81-29.66,3.63-3.37,1.44-7.55.52-11.86a12.82,12.82,0,0,0,11.4,2.63c2.76-12.08,26.41-17.56,38.45-17,11,.48,34-.23,39.32,16.94,3.63.32,7.19-2.07,10.74-4.48a24.62,24.62,0,0,0-.78,11.36c14.18-1,24.29,17.62,27,29.2,2.46,10.58,10.18,30.66-4,41.9A19,19,0,0,0,259.84,271a14.49,14.49,0,0,0-10.45,3.67c2.61,15.06-11.27,28.94-21.13,35.65-9.1,6.2-26.07,21-40.22,11-3.75,2-5.71,9.69-6.67,13.64-.76-3.79-1.57-11.46-7-13.92-9.8,10.71-30.25-.14-40-7.3-8.74-6.44-26.32-17.84-21.53-35.26-2.61-2.48-6.93-3.34-11.32-3.57,3.46-2.32,7.23-6.07,7-10.19C95.49,257.63,100.32,232.78,104.72,221.53Z"/><path class="cls-5" d="M228.45,259.58a15.12,15.12,0,0,0,7.54-1.93c3.89-2.21,6.07-5.22,3.76-9.93-1.19-2.43-3.38-5.13-5.07-8.28-5.27-8.81-5.53-14.18-5.81-25.4-.11-5.25-3.08-9.49-7.56-9.66-2.89-.11-5.83,1.61-8.46,2.84-1.93.9-4.72,3.24-5.23,3.1-.1-.67,1.52-3.93,1.94-6a17.61,17.61,0,0,0-.11-7.78c-1-4.87-4.85-7.28-10.25-5.44a44,44,0,0,1-8.17,2.37,59.27,59.27,0,0,1-9.87.93,52.9,52.9,0,0,1-9.9-.63c-3.53-.59-5.59-1.63-8.23-2.22a8.65,8.65,0,0,0-10.43,6.28c-.8,2.78.19,6,.76,8.89.42,2.1,2,5.36,1.94,5.85-.54-.1-3.21-2.68-5.12-3.75a16,16,0,0,0-7.68-2.39c-4.63-.21-8.14,2.77-8.72,8-.3,2.7.21,5-.38,8.52a57.21,57.21,0,0,1-2.34,9.69,52.91,52.91,0,0,1-3.89,9.2c-1.75,3.17-2.44,3.45-3.89,5.78A8.51,8.51,0,0,0,126,259.52c2.47,1.64,3.62,1.82,6.6,2,3.41.24,6.91-.27,7.37.09-.26.57-3.48,2.14-5.07,3.51a14.72,14.72,0,0,0-4.6,6.09c-1.64,4.08,0,8.16,4.73,10.34,2.42,1.13,4.7,1.41,7.81,3.05a59.58,59.58,0,0,1,8.27,5.18,51.66,51.66,0,0,1,7.34,6.4c2.4,2.57,3.39,4.61,5.1,6.64,3.32,3.94,7.71,4,11.25,1.36,2.3-1.68,3.5-4.8,4.76-7.35.93-1.87,1.63-5.37,2-5.69.36.4.89,4,1.75,6a15.59,15.59,0,0,0,4.55,6.43c3.49,2.94,7,2.38,10.62-1.33,1.86-1.91,2.34-3.31,5.09-6.72,6.55-7.94,15.52-11.75,23.09-14.52,4.9-1.82,7.18-6.51,5.72-10.77-.95-2.75-1.73-3.56-3.94-5.52-2.51-2.23-5.55-3.92-6-5,.28-.83,3.83,0,6-.12"/><path class="cls-3" d="M215.91,235s-5.32,4.16-5.47,7.46c-.23,4.93,4.55,7.42,2.77,13.31-2.55,8.47-6.63,6.79-9.78,9.9-2.48,2.43-.47,10.55-.28,10.59,0-.19-5.15-4.28-10-2-4,1.95-3.85,6.49-12.22,6.72-6.54.17-7.92-5.85-12.16-6.87s-9.53,4-9.36,4c.29-.41,3.27-7.93,0-10.85s-7.55-1.78-10.28-9.69c-2.61-7.6,3.42-9.38,2.87-14.16-.36-3.19-5.88-7.35-5.88-7.35s6.77-.22,8.89-2.75c3.15-3.79,1.26-8.17,5.83-12.28,6.31-5.69,9.84-2.11,14.23-2.68,3.45-.44,5.88-8,5.75-8.1-.13.13,3.69,7.72,7.19,8.14,4.46.53,6.49-3.07,13.11,2,6.35,4.92,2.72,8,5.92,11.62,2.15,2.39,9,2.49,9,2.49"/><path class="cls-1" d="M215.91,235s-5.32,4.16-5.47,7.46c-.23,4.93,4.55,7.42,2.77,13.31-2.55,8.47-6.63,6.79-9.78,9.9-2.48,2.43-.47,10.55-.28,10.59,0-.19-5.15-4.28-10-2-4,1.95-3.85,6.49-12.22,6.72-6.54.17-7.92-5.85-12.16-6.87s-9.53,4-9.36,4c.29-.41,3.27-7.93,0-10.85s-7.55-1.78-10.28-9.69c-2.61-7.6,3.42-9.38,2.87-14.16-.36-3.19-5.88-7.35-5.88-7.35s6.77-.22,8.89-2.75c3.15-3.79,1.26-8.17,5.83-12.28,6.31-5.69,9.84-2.11,14.23-2.68,3.45-.44,5.88-8,5.75-8.1-.13.13,3.69,7.72,7.19,8.14,4.46.53,6.49-3.07,13.11,2,6.35,4.92,2.72,8,5.92,11.62,2.15,2.39,9,2.49,9,2.49"/><path class="cls-5" d="M165.32,241.73c-3.64-2.32-8.5-9.16-1.56-16.8,6.33-7,16.34-1.67,17.42,4.42,5.71-10.23,14.45-8.09,17.41-5.65s7.12,9-.28,17.18c5.35.9,12.55,4.71,10.1,14.71-1.82,7.47-13.23,9.09-15.74,5.82,0,0,1.43,14.16-11,14.09s-10.6-13.67-10.6-13.67c-11,5.29-15.36-1.38-17.21-5-1.3-2.51-1.56-13,11.45-15.14"/><path class="cls-6" d="M165.32,241.73c-3.64-2.32-8.5-9.16-1.56-16.8,6.33-7,16.34-1.67,17.42,4.42,5.71-10.23,14.45-8.09,17.41-5.65s7.12,9-.28,17.18c5.35.9,12.55,4.71,10.1,14.71-1.82,7.47-13.23,9.09-15.74,5.82,0,0,1.43,14.16-11,14.09s-10.6-13.67-10.6-13.67c-11,5.29-15.36-1.38-17.21-5C152.57,254.36,152.31,243.86,165.32,241.73Z"/><path class="cls-5" d="M211.29,189.52c-1.72-4.14-7-6.84-12.11-5.44-6.27,1.73-11.7,3.81-18.5,3.84-5.47,0-15.17-2.63-18.44-3.35a9.85,9.85,0,0,0-11.33,6.33c-1.68,5-.88,8.31-.26,12.78-2.43-1.75-5.46-4-4.9-12.79.79-12.2,16.41-19.17,35.4-18.33,11,.49,32.83-.4,36,16.94,1.32,7.33-4.94,13.45-5.66,13.42.9-4.37,1.68-8.95-.17-13.4"/><path class="cls-5" d="M150.94,238.55a16.89,16.89,0,0,0,5.63-2,25.11,25.11,0,0,0,4.58,3.81,33.18,33.18,0,0,0-5.72,1.85,35.34,35.34,0,0,0-4.49-3.71"/><path class="cls-5" d="M181.24,215.36a16.84,16.84,0,0,0,3.6,5.2,24,24,0,0,0-3.38,5.16,33.62,33.62,0,0,0-3.48-5.31,33.27,33.27,0,0,0,3.26-5"/><path class="cls-5" d="M211.51,237.23a16.81,16.81,0,0,0-4.22,4.71,23.79,23.79,0,0,0-5.81-2.08,32.65,32.65,0,0,0,4.35-4.63,33.22,33.22,0,0,0,5.68,2"/><path class="cls-5" d="M199.78,272.48a14.58,14.58,0,0,0-5-2.16,20.44,20.44,0,0,0,.11-5.32,29.24,29.24,0,0,0,5,2.3,28.18,28.18,0,0,0-.09,5.18"/><path class="cls-5" d="M163.28,272.72a15.36,15.36,0,0,0,.39-5.72,21.69,21.69,0,0,0,5.31-1.74,30.21,30.21,0,0,0-.54,5.72,30.36,30.36,0,0,0-5.16,1.74"/><path class="cls-3" d="M181.64,233.13a14.07,14.07,0,1,1-14.07,14.07,14.07,14.07,0,0,1,14.07-14.07"/><circle class="cls-1" cx="181.64" cy="247.2" r="14.07"/><path class="cls-5" d="M181.64,237.42a9.79,9.79,0,1,1-9.78,9.78,9.78,9.78,0,0,1,9.78-9.78"/><path class="cls-7" d="M181.64,237.42a9.79,9.79,0,1,1-9.78,9.78A9.78,9.78,0,0,1,181.64,237.42Z"/><path class="cls-5" d="M219.73,193.37a17.79,17.79,0,0,0,.89-6.24,27.31,27.31,0,0,0,5.81-2.46,35.68,35.68,0,0,0-1,6.27,37.94,37.94,0,0,0-5.67,2.43"/><path class="cls-5" d="M142.75,195.21a20.29,20.29,0,0,0-6.6-3,31.5,31.5,0,0,0-.83-7.21,39.87,39.87,0,0,0,6.58,3.16,44.72,44.72,0,0,0,.85,7"/><path class="cls-5" d="M253.45,268.76a20.68,20.68,0,0,0-7.13,1.31,30.77,30.77,0,0,0-4.8-5.45,39.78,39.78,0,0,0,7.22-1.15,43.74,43.74,0,0,0,4.71,5.29"/><path class="cls-5" d="M181.51,324.86a20.58,20.58,0,0,0-3.63-6.28,30.5,30.5,0,0,0,3.52-6.35,39.42,39.42,0,0,0,3.51,6.41,42.56,42.56,0,0,0-3.4,6.22"/><path class="cls-5" d="M108.44,273.19a20.15,20.15,0,0,0,4.4-5.76,31.54,31.54,0,0,0,7.22.81,39.55,39.55,0,0,0-4.57,5.7,42.88,42.88,0,0,0-7-.75"/><path class="cls-5" d="M243.54,256.83c6.94-7.32,2.26-11.82-.47-16.51-3.37-5.82-4-7-5.88-13.77-1.48-5.47-2-13.38-2.11-16.85a9.06,9.06,0,0,0-8.74-9c-5.4-.34-8.51,1.95-12.77,3.77,1.81-3.14,2.93-6.66,11.42-8.93,12.1-3.24,19.9,9.79,26.08,27.58,3.74,10.76,7.86,29.32-5.85,37.54-5.57,3.35-12.49,1.16-13,.64,4.63-1.06,8-.88,11.36-4.49"/><path class="cls-8" d="M189.63,308.31c9.17,4.2,11.92-1.68,15.48-5.77,4.42-5.07,5.3-6.09,11.14-10,4.7-3.16,12-6.17,15.26-7.43a9.07,9.07,0,0,0,5.69-11.17c-1.42-5.22-3.87-7.86-7-11.3,3.56.7,6.53,1.06,11.42,8.35,7,10.42-3.7,23.57-18.55,35.16-9,7-24,17.91-36.23,7.59-5-4.2-5.46-14-5.15-14.73,2.49,4,3.4,7.24,7.91,9.31"/><path class="cls-5" d="M124.27,276c-1.78,8.47,5,10,10,12.24,6.1,2.82,7.32,3.39,12.72,7.9,4.35,3.63,11.31,10.25,13.43,13,3.32,4.31,6.36,4.31,10.27,1.92,4.62-2.82,6.47-5.91,8.91-9.84.32,3.61,1.66,6.22-4,12.95-8.05,9.6-23,5.49-39.35-7.91-8.83-7.21-23.06-16.46-16.56-31.06,2.65-5.94,9.84-9.33,10.59-9.23-3.19,3.53-5,5.4-6,10"/><path class="cls-5" d="M134.56,202.42c-8.57,1.23-7.13,8.22-7.58,13.63-.57,6.69-.76,8.88-3.15,15.5-1.92,5.33-6.69,12.95-8,16.14-2.19,5.19-.55,8.54,1.72,10.31,4.27,3.33,8.27,4.56,12.81,5.5-3.29,1.54-5.79,3.19-14,.19-11.78-4.27-11.76-20.21-4.78-40.19,3.75-10.76,9.68-27.73,25.63-26.62,6.49.45,11.63,8.16,11.78,8.9-4.4-1.78-9.66-4-14.34-3.36"/></g></g><path class="cls-3" d="M30.78,50V450h300V50Zm295,395h-290V55h290Z"/><rect class="cls-9" x="35.78" y="55" width="20" height="390"/><text class="cls-10" transform="translate(122.99 105.5)">Passport</text><path class="cls-3" d="M150.78,384.84v13.58h20a10.09,10.09,0,0,1,19.94,0h20V384.84Zm0,16.74v13.58h60V401.58h-20a10.09,10.09,0,0,1-19.94,0Z"/><rect class="cls-11" x="403.89" y="55" width="20" height="390"/><text class="cls-12" transform="translate(491.09 105.5)">Passport</text><path class="cls-13" d="M398.89,50V450h300V50Zm295,395h-290V55h290Z"/><path class="cls-13" d="M543,164.93c20.53-2.07,38.57,11.59,40.36,30.63,1.3,13.85-5.31,24.64-15.17,29.48-10.63,5.23-22.17,2-27.77-4-8.94-9.51-4.55-27.73,8-26.61,2.08.18,6.94,1.92,6.3,6.58-.51,3.7-5.17,1.53-5.73,5.44-.52,3.66,3.08,6.21,6,6.58,6,.76,9.65-3.06,11.45-6.3,5.9-10.61-2.43-22.13-11.45-25.47-18.21-6.74-36,9.7-34.63,29.48,1,14.92,10.41,24.78,22.61,29.48a39.84,39.84,0,0,0,22.61,1.72c7-1.58,13.61-4.55,21.47-4.58,15-.06,24.79,5.22,32.06,11.74,8.76,7.85,16.1,20,14.88,36.63a38.23,38.23,0,0,1-24,32.63c-21.32,8.31-43.85-5.27-44.08-26.33-.17-15.18,13.15-28.53,28.05-23.18,4.8,1.72,8.79,6.23,9.73,10.59,2.12,9.84-6.53,14.28-10.3,11.45-3.13-2.36,1-5-1.43-7.73-3.86-4.36-10.82,1.38-11.17,7.44-.43,7.69,5.91,12.56,9.73,14,7.81,3,15.35-.44,19.47-3.73a24.6,24.6,0,0,0,8.87-16.6,28.23,28.23,0,0,0-9.44-23.47c-6-5.33-13.61-8.8-24.62-8-16.25,1.16-27.55,13-31.77,25.47-2.8,8.25-3.45,14.79-7.16,21.47-9.22,16.62-31.69,32.13-57.53,21.47-11.48-4.74-23.36-16-24.62-32.35-1.28-16.64,7.5-29.41,18.61-34.63,15-7.06,30.19-.33,36.06,9.44,4.47,7.44,4,20.11-2.57,26.34-5,4.71-12.53,5.51-17.46,2.86-5.63-3-6.81-12.48-1.72-13.74,4-1,3.14,3.09,6.87,2.58,6.22-.86,3.78-11.6-2.29-14.32-11-4.93-21.16,5.43-22.33,14.6-1.27,10,3.85,17.14,8.88,21.18a27.75,27.75,0,0,0,17.74,6.3c17.91-.22,32.85-15.83,31.2-37.5-1-13.08-8.08-20.1-16.6-28.62-7.32-7.32-13.87-17-14.88-30.05-1.15-14.73,3.5-25.44,9.73-33.21A41.73,41.73,0,0,1,543,164.93Z"/><path class="cls-13" d="M518.89,386.42V400h20a10.09,10.09,0,0,1,19.94,0h20V386.42Zm0,16.74v13.58h60V403.16h-20a10.09,10.09,0,0,1-19.94,0Z"/><rect class="cls-14" x="772" y="55" width="20" height="390"/><text class="cls-15" transform="translate(859.2 105.5)">Passport</text><path class="cls-16" d="M767,50V450h300V50Zm295,395H772V55h290Z"/><g class="cls-17"><g class="cls-17"><path class="cls-16" d="M913.57,305.23c-5.84,1.78-11.33,3.47-16.83,5.11-5.85,1.76-11.71,3.51-17.59,5.18-2.83.8-4.43-.8-3.76-3.71,1.52-6.53,3-13.06,4.67-19.56.32-1.29,0-1.77-1.15-2.28q-24-10.75-48-21.6c-5.07-2.3-5.16-3.64-.94-7.26,2.59-2.22,5.12-4.53,7.77-6.7,1.37-1.13,1.38-2.12.56-3.65-3.58-6.65-7-13.35-10.49-20.08-1.48-2.88-.27-4.76,3-4.77,7.26,0,14.52-.15,21.78,0,1.85,0,2.29-.68,2.59-2.26.74-3.88,1.57-7.75,2.52-11.58.85-3.48,2.28-4.06,5.25-2,7.7,5.31,15.31,10.76,23,16.15.57.41,1.16.79,2.18,1.48-.23-3-.39-5.69-.62-8.32q-1-11.82-2.07-23.64c-.41-4.66-.81-9.32-1.27-14-.24-2.4,1.75-4.24,4-3.42,3.78,1.36,7.51,2.83,11.23,4.34a1.64,1.64,0,0,0,2.42-.82q6.07-9.78,12.32-19.45c2-3.15,4-3.17,6-.07q6.24,9.69,12.33,19.45c.71,1.15,1.31,1.38,2.55.86q5.48-2.28,11-4.3c2.27-.83,4,.43,3.87,2.83q-.49,8.43-1.2,16.86c-.51,6.21-1.12,12.41-1.68,18.62-.33,3.63-.67,7.27-1,11.26.84-.58,1.46-1,2.06-1.44,7.33-5.22,14.61-10.5,22-15.65,4.54-3.16,5.69-2.65,6.93,2.76q1.18,5.25,2.2,10.55c.24,1.28.72,1.75,2.1,1.74,7.5,0,15,0,22.5.06,2.74,0,4,2,2.79,4.41q-5.32,10.4-10.8,20.73c-.72,1.35-.63,2.23.53,3.21q4.67,4,9.21,8.07c2.48,2.22,2.3,3.93-.71,5.31q-19.86,9.08-39.79,18c-3.22,1.46-6.43,3-9.7,4.3-1.29.53-1.46,1.15-1.14,2.44,1.59,6.39,3,12.83,4.62,19.19.75,2.87-1.25,4.84-3.91,4-8.44-2.69-17-5.18-25.44-7.75a7.84,7.84,0,0,1-1.15-.5c-1.73-.82-2.39-2.17-1.84-3.77a2.92,2.92,0,0,1,3.75-1.57c4.61,1.32,9.2,2.7,13.79,4.06l7.88,2.35c-.84-3.52-1.6-6.75-2.37-10-.65-2.79-1.33-5.58-2-8.38-.51-2.24-.23-2.84,1.89-3.8q22.59-10.23,45.21-20.42c1.14-.51,2.25-1.06,3.68-1.74-1.21-1.07-2.22-2-3.24-2.86-1.93-1.7-3.87-3.42-5.82-5.1a2.89,2.89,0,0,1-.72-4.09c3.17-5.85,6.22-11.76,9.32-17.65.3-.57.59-1.16,1-1.94-.74-.05-1.3-.12-1.86-.14L979.94,232c-.9,0-1.79-.16-2.69-.17-2,0-2.91-1.06-3.29-2.9-.69-3.41-1.45-6.8-2.19-10.19-.1-.46-.25-.91-.44-1.57-1.63,1.14-3.15,2.18-4.65,3.24q-10.12,7.19-20.25,14.37a25.33,25.33,0,0,1-3,1.89,2.69,2.69,0,0,1-3.94-2.57c.46-6.4,1-12.79,1.55-19.18q1.15-13.8,2.33-27.61c0-.41,0-.82,0-1.57-1.85.72-3.49,1.37-5.15,2s-3.27,1.17-4.88,1.83a2.68,2.68,0,0,1-3.67-1.23q-5.39-8.4-10.8-16.8c-.54-.84-1.1-1.67-1.8-2.73-.89,1.37-1.65,2.51-2.38,3.65-3.3,5.15-6.57,10.32-9.91,15.44-1.44,2.21-2.06,2.39-4.49,1.5-3.09-1.13-6.15-2.34-9.58-3.65.18,2.77.32,5.25.52,7.72q1.58,19.19,3.19,38.36a8.65,8.65,0,0,0,.1.89c.31,1.49.29,2.85-1.16,3.84s-2.77.19-3.94-.63q-12.15-8.52-24.26-17.1c-.73-.51-1.48-1-2.48-1.69-.61,2.78-1.18,5.38-1.76,8-.33,1.51-.72,3-1,4.54a2.37,2.37,0,0,1-2.37,2.06c-2,.14-4,.29-5.93.3-5.32.05-10.64,0-16.42,0l1.15,2.25c3.15,6,6.27,12,9.47,18a2.62,2.62,0,0,1-.6,3.65l-7.56,6.66c-.49.43-1,.87-1.66,1.5,1.13.55,2.06,1,3,1.46q22.2,10,44.4,20.05c4,1.79,4,1.84,3,6.1-1.2,5.12-2.46,10.24-3.68,15.36-.08.33-.11.68-.21,1.37l31.3-9.52c0-.57.09-1.1.09-1.63,0-5.7,0-11.4,0-17.1a2.35,2.35,0,0,0-1.4-2.38q-17.15-9.88-34.23-19.87c-1.6-.93-3.11-2-4.63-3.08a2.13,2.13,0,0,1-.72-3.26c.86-1.26,2-1.95,3.53-1.13,3.59,1.92,7.19,3.83,10.74,5.84,8.18,4.65,16.33,9.36,24.5,14,.61.35,1.23.66,2.14,1.14v-2.9q0-26.66.08-53.3c0-3.36.15-6.71.31-10.07.09-2,1.24-3.2,3-3.15,1.32,0,2.39.5,2.5,2,.2,2.81.5,5.62.51,8.43.08,18.6.09,37.21.13,55.81v3.16c.86-.45,1.49-.75,2.08-1.09q15.15-8.66,30.3-17.31c1.62-.92,3.29-1.74,4.93-2.6s2.69-.2,3.56,1.05.54,2.53-.76,3.38c-2.71,1.77-5.41,3.57-8.2,5.2Q937,269,921.67,277.74a2.52,2.52,0,0,0-1.47,2.52q0,25-.06,50.05a51.11,51.11,0,0,1-.54,7.52A2.62,2.62,0,0,1,915,339.1a4.46,4.46,0,0,1-.86-2.47q-.3-3.67-.33-7.37c-.06-7-.05-13.92-.09-20.88,0-.94-.11-1.88-.19-3.15"/></g></g><path class="cls-16" d="M887,386.42V400h20A10.09,10.09,0,0,1,927,400h20V386.42Zm0,16.74v13.58h60V403.16H927a10.09,10.09,0,0,1-19.94,0Z"/></svg>